<?xml version="1.0" encoding="UTF-8" standalone="no"?>
<!-- Created with Inkscape (http://www.inkscape.org/) -->
<svg
   xmlns:dc="http://purl.org/dc/elements/1.1/"
   xmlns:cc="http://creativecommons.org/ns#"
   xmlns:rdf="http://www.w3.org/1999/02/22-rdf-syntax-ns#"
   xmlns:svg="http://www.w3.org/2000/svg"
   xmlns="http://www.w3.org/2000/svg"
   xmlns:xlink="http://www.w3.org/1999/xlink"
   xmlns:sodipodi="http://sodipodi.sourceforge.net/DTD/sodipodi-0.dtd"
   xmlns:inkscape="http://www.inkscape.org/namespaces/inkscape"
   width="1373"
   height="1181"
   id="svg1901"
   sodipodi:version="0.32"
   inkscape:version="0.46"
   sodipodi:docname="flatron.svg"
   sodipodi:docbase="/home/tsoots/ohj/translations/po"
   version="1.0"
   inkscape:output_extension="org.inkscape.output.svg.inkscape">
  <defs
     id="defs1903">
    <linearGradient
       id="linearGradient3736">
      <stop
         style="stop-color:#d3d2d3;stop-opacity:1;"
         offset="0"
         id="stop3738" />
      <stop
         style="stop-color:#a4a3a7;stop-opacity:1;"
         offset="1"
         id="stop3740" />
    </linearGradient>
    <linearGradient
       id="linearGradient3716">
      <stop
         style="stop-color:#959595;stop-opacity:1;"
         offset="0"
         id="stop3718" />
      <stop
         style="stop-color:#969696;stop-opacity:0;"
         offset="1"
         id="stop3720" />
    </linearGradient>
    <linearGradient
       id="linearGradient3702">
      <stop
         style="stop-color:#dadada;stop-opacity:1;"
         offset="0"
         id="stop3704" />
      <stop
         style="stop-color:#ceced0;stop-opacity:1;"
         offset="1"
         id="stop3706" />
    </linearGradient>
    <linearGradient
       id="linearGradient3694">
      <stop
         style="stop-color:#000000;stop-opacity:0"
         offset="0"
         id="stop3696" />
      <stop
         style="stop-color:#000000;stop-opacity:0;"
         offset="1"
         id="stop3698" />
    </linearGradient>
    <linearGradient
       id="linearGradient3668">
      <stop
         style="stop-color:#dcdcdc;stop-opacity:1;"
         offset="0"
         id="stop3670" />
      <stop
         id="stop3682"
         offset="0.5"
         style="stop-color:#e2e2e2;stop-opacity:1;" />
      <stop
         style="stop-color:#e0e0e0;stop-opacity:1;"
         offset="1"
         id="stop3672" />
    </linearGradient>
    <linearGradient
       id="linearGradient3658">
      <stop
         style="stop-color:#dcdcdc;stop-opacity:1;"
         offset="0"
         id="stop3660" />
      <stop
         style="stop-color:#efefef;stop-opacity:1;"
         offset="1"
         id="stop3662" />
    </linearGradient>
    <linearGradient
       id="linearGradient3608">
      <stop
         style="stop-color:#787878;stop-opacity:1;"
         offset="0"
         id="stop3610" />
      <stop
         id="stop3616"
         offset="0.05886631"
         style="stop-color:#262626;stop-opacity:1;" />
      <stop
         style="stop-color:#262626;stop-opacity:1;"
         offset="0.92191237"
         id="stop3618" />
      <stop
         style="stop-color:#787878;stop-opacity:1;"
         offset="1"
         id="stop3612" />
    </linearGradient>
    <linearGradient
       id="linearGradient3600">
      <stop
         style="stop-color:#343434;stop-opacity:1;"
         offset="0"
         id="stop3602" />
      <stop
         style="stop-color:#343434;stop-opacity:0.42608696;"
         offset="1"
         id="stop3604" />
    </linearGradient>
    <linearGradient
       id="linearGradient3586">
      <stop
         style="stop-color:#5c5b60;stop-opacity:1;"
         offset="0"
         id="stop3588" />
      <stop
         id="stop3594"
         offset="0.23475531"
         style="stop-color:#b3b2b6;stop-opacity:1;" />
      <stop
         style="stop-color:#5c5b60;stop-opacity:1;"
         offset="0.4925566"
         id="stop3596" />
      <stop
         id="stop3598"
         offset="0.77982396"
         style="stop-color:#aeadb2;stop-opacity:1;" />
      <stop
         style="stop-color:#5c5b60;stop-opacity:1;"
         offset="1"
         id="stop3590" />
    </linearGradient>
    <linearGradient
       id="linearGradient3574">
      <stop
         style="stop-color:#f8f8f6;stop-opacity:1;"
         offset="0"
         id="stop3576" />
      <stop
         id="stop3582"
         offset="0.5"
         style="stop-color:#f8f8f6;stop-opacity:0.49803922;" />
      <stop
         style="stop-color:#f8f8f6;stop-opacity:0;"
         offset="1"
         id="stop3578" />
    </linearGradient>
    <linearGradient
       id="linearGradient3564">
      <stop
         style="stop-color:#818183;stop-opacity:1;"
         offset="0"
         id="stop3566" />
      <stop
         id="stop3572"
         offset="0.5"
         style="stop-color:#ffffff;stop-opacity:1;" />
      <stop
         style="stop-color:#81818f;stop-opacity:0.94117647;"
         offset="1"
         id="stop3568" />
    </linearGradient>
    <linearGradient
       id="linearGradient3554">
      <stop
         style="stop-color:#7b7b7d;stop-opacity:1;"
         offset="0"
         id="stop3556" />
      <stop
         id="stop3562"
         offset="0.5"
         style="stop-color:#f8f8f6;stop-opacity:1;" />
      <stop
         style="stop-color:#7b7b7d;stop-opacity:1;"
         offset="1"
         id="stop3558" />
    </linearGradient>
    <linearGradient
       id="linearGradient3544">
      <stop
         style="stop-color:#8b8b8d;stop-opacity:1;"
         offset="0"
         id="stop3546" />
      <stop
         id="stop3552"
         offset="0.5"
         style="stop-color:#7f7f81;stop-opacity:1;" />
      <stop
         style="stop-color:#8b8b8d;stop-opacity:1;"
         offset="1"
         id="stop3548" />
    </linearGradient>
    <linearGradient
       id="linearGradient3518">
      <stop
         style="stop-color:#767175;stop-opacity:1;"
         offset="0"
         id="stop3520" />
      <stop
         style="stop-color:#525053;stop-opacity:1;"
         offset="1"
         id="stop3522" />
    </linearGradient>
    <linearGradient
       id="linearGradient3502">
      <stop
         style="stop-color:#000000;stop-opacity:1;"
         offset="0"
         id="stop3504" />
      <stop
         style="stop-color:#000000;stop-opacity:0;"
         offset="1"
         id="stop3506" />
    </linearGradient>
    <linearGradient
       id="linearGradient3344">
      <stop
         style="stop-color:#3e3f42;stop-opacity:1;"
         offset="0"
         id="stop3346" />
      <stop
         style="stop-color:#141414;stop-opacity:1;"
         offset="1"
         id="stop3348" />
    </linearGradient>
    <linearGradient
       id="linearGradient3334">
      <stop
         style="stop-color:#000000;stop-opacity:1;"
         offset="0"
         id="stop3336" />
      <stop
         id="stop3342"
         offset="0.5"
         style="stop-color:#1e1e1e;stop-opacity:1;" />
      <stop
         style="stop-color:#1e1e1e;stop-opacity:1;"
         offset="1"
         id="stop3338" />
    </linearGradient>
    <inkscape:perspective
       sodipodi:type="inkscape:persp3d"
       inkscape:vp_x="0 : 526.18109 : 1"
       inkscape:vp_y="0 : 1000 : 0"
       inkscape:vp_z="744.09448 : 526.18109 : 1"
       inkscape:persp3d-origin="372.04724 : 350.78739 : 1"
       id="perspective7" />
    <inkscape:perspective
       id="perspective2444"
       inkscape:persp3d-origin="372.04724 : 350.78739 : 1"
       inkscape:vp_z="744.09448 : 526.18109 : 1"
       inkscape:vp_y="0 : 1000 : 0"
       inkscape:vp_x="0 : 526.18109 : 1"
       sodipodi:type="inkscape:persp3d" />
    <radialGradient
       inkscape:collect="always"
       xlink:href="#linearGradient3344"
       id="radialGradient3350"
       cx="-719.95428"
       cy="-100.64034"
       fx="-719.95428"
       fy="-100.64034"
       r="585.16064"
       gradientTransform="matrix(0.1611967,0.9433698,-0.6418606,0.1096768,-620.4714,642.65466)"
       gradientUnits="userSpaceOnUse" />
    <filter
       inkscape:collect="always"
       id="filter3474"
       x="-0.03472919"
       width="1.0694584"
       y="-0.56101"
       height="2.12202">
      <feGaussianBlur
         inkscape:collect="always"
         stdDeviation="1.5348278"
         id="feGaussianBlur3476" />
    </filter>
    <filter
       inkscape:collect="always"
       id="filter3498">
      <feGaussianBlur
         inkscape:collect="always"
         stdDeviation="2.6826708"
         id="feGaussianBlur3500" />
    </filter>
    <filter
       inkscape:collect="always"
       id="filter3538"
       x="-0.0055243215"
       width="1.0110486"
       y="-0.1770238"
       height="1.3540477">
      <feGaussianBlur
         inkscape:collect="always"
         stdDeviation="0.41911182"
         id="feGaussianBlur3540" />
    </filter>
    <linearGradient
       inkscape:collect="always"
       xlink:href="#linearGradient3658"
       id="linearGradient3664"
       x1="94.828072"
       y1="834.01007"
       x2="94.828072"
       y2="87.007332"
       gradientUnits="userSpaceOnUse" />
    <linearGradient
       inkscape:collect="always"
       xlink:href="#linearGradient3668"
       id="linearGradient3674"
       x1="91.339287"
       y1="809.39288"
       x2="1273.9286"
       y2="809.39288"
       gradientUnits="userSpaceOnUse"
       gradientTransform="translate(0,20)" />
    <linearGradient
       inkscape:collect="always"
       xlink:href="#linearGradient3702"
       id="linearGradient3708"
       x1="1270.0774"
       y1="87.60714"
       x2="1270.0774"
       y2="826.46106"
       gradientUnits="userSpaceOnUse" />
    <linearGradient
       inkscape:collect="always"
       xlink:href="#linearGradient3736"
       id="linearGradient3742"
       x1="65.642845"
       y1="462.01175"
       x2="1299.1785"
       y2="462.01175"
       gradientUnits="userSpaceOnUse" />
    <linearGradient
       inkscape:collect="always"
       xlink:href="#linearGradient3608"
       id="linearGradient2581"
       gradientUnits="userSpaceOnUse"
       x1="373.36325"
       y1="1112.9591"
       x2="996.21637"
       y2="1112.9591" />
    <linearGradient
       inkscape:collect="always"
       xlink:href="#linearGradient3586"
       id="linearGradient2583"
       gradientUnits="userSpaceOnUse"
       x1="361.07751"
       y1="1077.7009"
       x2="1008.5021"
       y2="1077.7009" />
    <linearGradient
       inkscape:collect="always"
       xlink:href="#linearGradient3554"
       id="linearGradient2585"
       gradientUnits="userSpaceOnUse"
       gradientTransform="matrix(1,0,0,0.9800072,0,22.875867)"
       x1="361.07751"
       y1="1068.415"
       x2="1008.5021"
       y2="1068.415" />
    <radialGradient
       inkscape:collect="always"
       xlink:href="#linearGradient3564"
       id="radialGradient2587"
       gradientUnits="userSpaceOnUse"
       gradientTransform="matrix(1.5480611,-0.1834317,3.729728e-2,0.3235084,-356.92686,814.42575)"
       cx="527.65417"
       cy="1272.5239"
       fx="527.65417"
       fy="1272.5239"
       r="323.71228" />
    <linearGradient
       inkscape:collect="always"
       xlink:href="#linearGradient3544"
       id="linearGradient2589"
       gradientUnits="userSpaceOnUse"
       x1="388.93469"
       y1="1061.2722"
       x2="980.64502"
       y2="1061.2722" />
    <linearGradient
       inkscape:collect="always"
       xlink:href="#linearGradient3518"
       id="linearGradient2591"
       gradientUnits="userSpaceOnUse"
       x1="665.68005"
       y1="1066.8822"
       x2="666.97235"
       y2="1103.9773" />
    <linearGradient
       inkscape:collect="always"
       xlink:href="#linearGradient3600"
       id="linearGradient2593"
       gradientUnits="userSpaceOnUse"
       x1="636.93561"
       y1="1106.5503"
       x2="636.01678"
       y2="1055.37" />
    <linearGradient
       inkscape:collect="always"
       xlink:href="#linearGradient3334"
       id="linearGradient2595"
       gradientUnits="userSpaceOnUse"
       x1="677.30988"
       y1="868.61285"
       x2="677.30988"
       y2="1029.2238" />
    <linearGradient
       inkscape:collect="always"
       xlink:href="#linearGradient3502"
       id="linearGradient2597"
       gradientUnits="userSpaceOnUse"
       x1="674.30023"
       y1="1034.6683"
       x2="674.25336"
       y2="1104.9625" />
  </defs>
  <sodipodi:namedview
     id="base"
     pagecolor="#ffffff"
     bordercolor="#666666"
     borderopacity="1.0"
     inkscape:pageopacity="0.0"
     inkscape:pageshadow="2"
     inkscape:zoom="0.35"
     inkscape:cx="763.91851"
     inkscape:cy="745.95026"
     inkscape:document-units="px"
     inkscape:current-layer="layer2"
     gridtolerance="10000"
     inkscape:window-width="1022"
     inkscape:window-height="718"
     inkscape:window-x="0"
     inkscape:window-y="0"
     showgrid="false" />
  <metadata
     id="metadata1906">
    <rdf:RDF>
      <cc:Work
         rdf:about="">
        <dc:format>image/svg+xml</dc:format>
        <dc:type
           rdf:resource="http://purl.org/dc/dcmitype/StillImage" />
      </cc:Work>
    </rdf:RDF>
  </metadata>
  <g
     inkscape:groupmode="layer"
     id="layer2"
     inkscape:label="vektori"
     style="display:inline">
    <g
       id="g3780"
       transform="translate(-0.1373556,0.1123907)">
      <path
         sodipodi:nodetypes="css"
         id="path3372"
         d="M 373.36324,1100.7299 C 373.36324,1126.4399 512.88236,1156.704 684.78984,1156.704 C 856.69733,1156.704 996.2164,1126.4399 996.2164,1100.7299 L 996.2164,1072.4286 L 397.14286,1072.4286 L 397.5,1072.4286 L 373.36324,1069.2143 L 373.36324,1100.7299 z"
         style="fill:url(#linearGradient2581);fill-opacity:1;fill-rule:evenodd;stroke:none;stroke-width:0.99999976;stroke-linecap:butt;stroke-linejoin:round;stroke-miterlimit:4;stroke-dashoffset:0;stroke-opacity:1;display:inline" />
      <path
         style="fill:url(#linearGradient2583);fill-opacity:1;fill-rule:evenodd;stroke:none;stroke-width:0.99999976;stroke-linecap:butt;stroke-linejoin:round;stroke-miterlimit:4;stroke-dashoffset:0;stroke-opacity:1;display:inline"
         d="M 1008.0021,1062.1195 C 1008.0021,1104.7437 863.20303,1154.9181 684.78983,1154.9181 C 506.37664,1154.9181 361.57752,1104.7437 361.57752,1062.1195 C 361.57752,1019.4958 506.37664,1000.4836 684.78983,1000.4836 C 863.20303,1000.4836 1008.0021,1019.4958 1008.0021,1062.1195 z"
         id="path3370"
         sodipodi:nodetypes="csssc" />
      <path
         sodipodi:nodetypes="csssc"
         id="path3361"
         d="M 1008.0021,1054.943 C 1008.0021,1095.9422 863.20303,1144.2037 684.78983,1144.2037 C 506.37664,1144.2037 361.57752,1095.9422 361.57752,1054.943 C 361.57752,1013.9442 506.37664,995.65689 684.78983,995.65689 C 863.20303,995.65689 1008.0021,1013.9442 1008.0021,1054.943 z"
         style="fill:url(#linearGradient2585);fill-opacity:1;fill-rule:evenodd;stroke:url(#radialGradient2587);stroke-width:0.99999988;stroke-linecap:butt;stroke-linejoin:round;stroke-miterlimit:4;stroke-dashoffset:0;stroke-opacity:1;display:inline" />
      <path
         style="fill:url(#linearGradient2589);fill-opacity:1;fill-rule:evenodd;stroke:#858588;stroke-width:0.99999988;stroke-linecap:butt;stroke-linejoin:round;stroke-miterlimit:4;stroke-dashoffset:0;stroke-opacity:1;display:inline"
         d="M 980.14504,1047.1323 C 980.14504,1085.8136 847.82592,1131.3466 684.78985,1131.3466 C 521.7538,1131.3466 389.43468,1085.8136 389.43468,1047.1323 C 389.43468,1008.4514 521.7538,991.19787 684.78985,991.19787 C 847.82592,991.19787 980.14504,1008.4514 980.14504,1047.1323 z"
         id="path3359"
         sodipodi:nodetypes="csssc" />
      <path
         transform="matrix(2.0047619,0,0,4.4615385,-583.09614,-3539.7197)"
         d="M 686.39867,1022.6586 A 53.033009,3.2829957 0 1 1 580.33265,1022.6586 A 53.033009,3.2829957 0 1 1 686.39867,1022.6586 z"
         sodipodi:ry="3.2829957"
         sodipodi:rx="53.033009"
         sodipodi:cy="1022.6586"
         sodipodi:cx="633.36566"
         id="path3432"
         style="opacity:0.33636367;fill:#000000;fill-opacity:1;fill-rule:evenodd;stroke:none;stroke-width:1;stroke-linecap:round;stroke-linejoin:round;stroke-miterlimit:4;stroke-dasharray:none;stroke-dashoffset:0;stroke-opacity:1;display:inline;filter:url(#filter3474)"
         sodipodi:type="arc" />
      <path
         sodipodi:nodetypes="csssc"
         id="path3352"
         d="M 776.4286,1080.5262 C 776.4286,1094.5234 728.5886,1111 669.64288,1111 C 610.69717,1111 562.85717,1094.5234 562.85717,1080.5262 C 562.85717,1066.5291 610.69717,1060.2857 669.64288,1060.2857 C 728.5886,1060.2857 776.4286,1066.5291 776.4286,1080.5262 z"
         style="fill:url(#linearGradient2591);fill-opacity:1;fill-rule:evenodd;stroke:url(#linearGradient2593);stroke-width:0.42986557;stroke-linecap:butt;stroke-linejoin:round;stroke-miterlimit:4;stroke-dasharray:none;stroke-dashoffset:0;stroke-opacity:1;display:inline"
         transform="matrix(2.2842626,0,0,2.3691288,-844.85029,-1515.0412)" />
      <rect
         ry="0"
         rx="0"
         y="868.86285"
         x="594.72736"
         height="160.10918"
         width="178.03938"
         id="rect3267"
         style="opacity:1;fill:url(#linearGradient2595);fill-opacity:1;fill-rule:evenodd;stroke:none;stroke-width:0.5;stroke-linecap:round;stroke-linejoin:round;stroke-miterlimit:4;stroke-dasharray:none;stroke-dashoffset:0;stroke-opacity:1;display:inline" />
      <rect
         rx="3.0304575"
         ry="2.3991122"
         y="1023.5425"
         x="593.84338"
         height="5.6821079"
         width="182.07999"
         id="rect3424"
         style="opacity:1;fill:#262626;fill-opacity:1;fill-rule:evenodd;stroke:none;stroke-width:1;stroke-linecap:round;stroke-linejoin:round;stroke-miterlimit:4;stroke-dasharray:none;stroke-dashoffset:0;stroke-opacity:1;display:inline;filter:url(#filter3538)" />
      <rect
         y="868.85712"
         x="602.14288"
         height="160"
         width="6.7857146"
         id="rect3269"
         style="opacity:1;fill:#8f8f8f;fill-opacity:0.13145537;fill-rule:evenodd;stroke:none;stroke-width:0.5;stroke-linecap:round;stroke-linejoin:round;stroke-miterlimit:4;stroke-dasharray:none;stroke-dashoffset:0;stroke-opacity:1;display:inline" />
      <path
         id="path3271"
         d="M 609.56845,868.86286 L 609.56845,1028.5932"
         style="opacity:1;fill:none;fill-opacity:1;fill-rule:evenodd;stroke:#0e0e0e;stroke-width:1;stroke-linecap:butt;stroke-linejoin:round;stroke-miterlimit:4;stroke-dasharray:none;stroke-dashoffset:0;stroke-opacity:1;display:inline" />
      <rect
         style="opacity:1;fill:#8f8f8f;fill-opacity:0.13145537;fill-rule:evenodd;stroke:none;stroke-width:0.5;stroke-linecap:round;stroke-linejoin:round;stroke-miterlimit:4;stroke-dasharray:none;stroke-dashoffset:0;stroke-opacity:1;display:inline"
         id="rect3281"
         width="6.7857146"
         height="160"
         x="618.14288"
         y="868.85712" />
      <path
         style="opacity:1;fill:none;fill-opacity:1;fill-rule:evenodd;stroke:#0e0e0e;stroke-width:1;stroke-linecap:butt;stroke-linejoin:round;stroke-miterlimit:4;stroke-dasharray:none;stroke-dashoffset:0;stroke-opacity:1;display:inline"
         d="M 625.56845,868.86286 L 625.56845,1028.5932"
         id="path3283" />
      <rect
         y="868.85712"
         x="634.14288"
         height="160"
         width="6.7857146"
         id="rect3285"
         style="opacity:1;fill:#8f8f8f;fill-opacity:0.13145537;fill-rule:evenodd;stroke:none;stroke-width:0.5;stroke-linecap:round;stroke-linejoin:round;stroke-miterlimit:4;stroke-dasharray:none;stroke-dashoffset:0;stroke-opacity:1;display:inline" />
      <path
         id="path3287"
         d="M 641.56845,868.86286 L 641.56845,1028.5932"
         style="opacity:1;fill:none;fill-opacity:1;fill-rule:evenodd;stroke:#0e0e0e;stroke-width:1;stroke-linecap:butt;stroke-linejoin:round;stroke-miterlimit:4;stroke-dasharray:none;stroke-dashoffset:0;stroke-opacity:1;display:inline" />
      <rect
         style="opacity:1;fill:#8f8f8f;fill-opacity:0.13145537;fill-rule:evenodd;stroke:none;stroke-width:0.5;stroke-linecap:round;stroke-linejoin:round;stroke-miterlimit:4;stroke-dasharray:none;stroke-dashoffset:0;stroke-opacity:1;display:inline"
         id="rect3289"
         width="6.7857146"
         height="160"
         x="650.14288"
         y="868.85712" />
      <path
         style="opacity:1;fill:none;fill-opacity:1;fill-rule:evenodd;stroke:#0e0e0e;stroke-width:1;stroke-linecap:butt;stroke-linejoin:round;stroke-miterlimit:4;stroke-dasharray:none;stroke-dashoffset:0;stroke-opacity:1;display:inline"
         d="M 657.56845,868.86286 L 657.56845,1028.5932"
         id="path3291" />
      <rect
         y="868.85712"
         x="666.14288"
         height="160"
         width="6.7857146"
         id="rect3293"
         style="opacity:1;fill:#8f8f8f;fill-opacity:0.13145537;fill-rule:evenodd;stroke:none;stroke-width:0.5;stroke-linecap:round;stroke-linejoin:round;stroke-miterlimit:4;stroke-dasharray:none;stroke-dashoffset:0;stroke-opacity:1;display:inline" />
      <path
         id="path3295"
         d="M 673.56845,868.86286 L 673.56845,1028.5932"
         style="opacity:1;fill:none;fill-opacity:1;fill-rule:evenodd;stroke:#0e0e0e;stroke-width:1;stroke-linecap:butt;stroke-linejoin:round;stroke-miterlimit:4;stroke-dasharray:none;stroke-dashoffset:0;stroke-opacity:1;display:inline" />
      <rect
         style="opacity:1;fill:#8f8f8f;fill-opacity:0.13145537;fill-rule:evenodd;stroke:none;stroke-width:0.5;stroke-linecap:round;stroke-linejoin:round;stroke-miterlimit:4;stroke-dasharray:none;stroke-dashoffset:0;stroke-opacity:1;display:inline"
         id="rect3297"
         width="6.7857146"
         height="160"
         x="682.14288"
         y="868.85712" />
      <path
         style="opacity:1;fill:none;fill-opacity:1;fill-rule:evenodd;stroke:#0e0e0e;stroke-width:1;stroke-linecap:butt;stroke-linejoin:round;stroke-miterlimit:4;stroke-dasharray:none;stroke-dashoffset:0;stroke-opacity:1;display:inline"
         d="M 689.56845,868.86286 L 689.56845,1028.5932"
         id="path3299" />
      <rect
         y="868.85712"
         x="698.14288"
         height="160"
         width="6.7857146"
         id="rect3301"
         style="opacity:1;fill:#8f8f8f;fill-opacity:0.13145537;fill-rule:evenodd;stroke:none;stroke-width:0.5;stroke-linecap:round;stroke-linejoin:round;stroke-miterlimit:4;stroke-dasharray:none;stroke-dashoffset:0;stroke-opacity:1;display:inline" />
      <path
         id="path3303"
         d="M 705.56845,868.86286 L 705.56845,1028.5932"
         style="opacity:1;fill:none;fill-opacity:1;fill-rule:evenodd;stroke:#0e0e0e;stroke-width:1;stroke-linecap:butt;stroke-linejoin:round;stroke-miterlimit:4;stroke-dasharray:none;stroke-dashoffset:0;stroke-opacity:1;display:inline" />
      <rect
         style="opacity:1;fill:#8f8f8f;fill-opacity:0.13145537;fill-rule:evenodd;stroke:none;stroke-width:0.5;stroke-linecap:round;stroke-linejoin:round;stroke-miterlimit:4;stroke-dasharray:none;stroke-dashoffset:0;stroke-opacity:1;display:inline"
         id="rect3305"
         width="6.7857146"
         height="160"
         x="714.14288"
         y="868.85712" />
      <path
         style="opacity:1;fill:none;fill-opacity:1;fill-rule:evenodd;stroke:#0e0e0e;stroke-width:1;stroke-linecap:butt;stroke-linejoin:round;stroke-miterlimit:4;stroke-dasharray:none;stroke-dashoffset:0;stroke-opacity:1;display:inline"
         d="M 721.56845,868.86286 L 721.56845,1028.5932"
         id="path3307" />
      <rect
         y="868.85712"
         x="730.14288"
         height="160"
         width="6.7857146"
         id="rect3309"
         style="opacity:1;fill:#8f8f8f;fill-opacity:0.13145537;fill-rule:evenodd;stroke:none;stroke-width:0.5;stroke-linecap:round;stroke-linejoin:round;stroke-miterlimit:4;stroke-dasharray:none;stroke-dashoffset:0;stroke-opacity:1;display:inline" />
      <path
         id="path3311"
         d="M 737.56845,868.86286 L 737.56845,1028.5932"
         style="opacity:1;fill:none;fill-opacity:1;fill-rule:evenodd;stroke:#0e0e0e;stroke-width:1;stroke-linecap:butt;stroke-linejoin:round;stroke-miterlimit:4;stroke-dasharray:none;stroke-dashoffset:0;stroke-opacity:1;display:inline" />
      <rect
         style="opacity:1;fill:#8f8f8f;fill-opacity:0.13145537;fill-rule:evenodd;stroke:none;stroke-width:0.5;stroke-linecap:round;stroke-linejoin:round;stroke-miterlimit:4;stroke-dasharray:none;stroke-dashoffset:0;stroke-opacity:1;display:inline"
         id="rect3313"
         width="6.7857146"
         height="160"
         x="746.14288"
         y="868.85712" />
      <path
         style="opacity:1;fill:none;fill-opacity:1;fill-rule:evenodd;stroke:#0e0e0e;stroke-width:1;stroke-linecap:butt;stroke-linejoin:round;stroke-miterlimit:4;stroke-dasharray:none;stroke-dashoffset:0;stroke-opacity:1;display:inline"
         d="M 753.56845,868.86286 L 753.56845,1028.5932"
         id="path3315" />
      <rect
         y="868.85712"
         x="762.14288"
         height="160"
         width="6.7857146"
         id="rect3317"
         style="opacity:1;fill:#8f8f8f;fill-opacity:0.13145537;fill-rule:evenodd;stroke:none;stroke-width:0.5;stroke-linecap:round;stroke-linejoin:round;stroke-miterlimit:4;stroke-dasharray:none;stroke-dashoffset:0;stroke-opacity:1;display:inline" />
      <path
         id="path3319"
         d="M 769.56845,868.86286 L 769.56845,1028.5932"
         style="opacity:1;fill:none;fill-opacity:1;fill-rule:evenodd;stroke:#0e0e0e;stroke-width:1;stroke-linecap:butt;stroke-linejoin:round;stroke-miterlimit:4;stroke-dasharray:none;stroke-dashoffset:0;stroke-opacity:1;display:inline" />
      <rect
         transform="matrix(1,0,0,1.0463508,-1.0101525,-52.45951)"
         y="1029.9822"
         x="595.98999"
         height="90.913727"
         width="177.28177"
         id="rect3380"
         style="opacity:0.65;fill:url(#linearGradient2597);fill-opacity:1;fill-rule:evenodd;stroke:none;stroke-width:0.96324193;stroke-linecap:round;stroke-linejoin:round;stroke-miterlimit:4;stroke-dasharray:none;stroke-dashoffset:0;stroke-opacity:1;filter:url(#filter3498)" />
    </g>
    <rect
       ry="6.4285712"
       rx="6.4285717"
       y="50.667866"
       x="61.964279"
       height="822.26929"
       width="1240.5358"
       id="rect3748"
       style="opacity:1;fill:#ffffff;fill-opacity:1;fill-rule:evenodd;stroke:none;stroke-width:0.49999997;stroke-linecap:butt;stroke-linejoin:round;stroke-miterlimit:4;stroke-dasharray:none;stroke-dashoffset:0;stroke-opacity:1" />
    <path
       style="opacity:1;fill:#d3d3d3;fill-opacity:1;fill-rule:evenodd;stroke:none;stroke-width:0.5;stroke-linecap:round;stroke-linejoin:round;stroke-miterlimit:4;stroke-dasharray:none;stroke-dashoffset:0;stroke-opacity:1"
       d="M 61.785714,866.35714 C 62.184833,868.59668 62.891399,873.53459 71.428572,872.96429 L 1295.8929,872.96429 C 1302.6748,872.43822 1302.7136,869.88653 1302.5,865.16317 C 1301.4375,867.9514 1297.3392,870.24771 1293.823,869.41388 L 61.785714,866.35714 z"
       id="path3746"
       sodipodi:nodetypes="cccccc" />
    <path
       style="opacity:1;fill:#f4f4f4;fill-opacity:1;fill-rule:evenodd;stroke:none;stroke-width:0.5;stroke-linecap:round;stroke-linejoin:round;stroke-miterlimit:4;stroke-dasharray:none;stroke-dashoffset:0;stroke-opacity:1"
       d="M 71.973369,53.41722 C 65.976856,54.138105 61.23451,52.415177 61.887162,58.809807 L 61.785714,867.07143 C 64.427602,869.51661 67.596564,870.69682 71.428572,870.28571 L 71.973369,53.41722 z"
       id="path3744"
       sodipodi:nodetypes="ccccc" />
    <rect
       ry="6.4285717"
       rx="6.4285712"
       y="53.229145"
       x="65.892845"
       height="817.56519"
       width="1233.0356"
       id="rect3248"
       style="opacity:1;fill:url(#linearGradient3742);fill-opacity:1;fill-rule:evenodd;stroke:none;stroke-width:0.49999997;stroke-linecap:butt;stroke-linejoin:round;stroke-miterlimit:4;stroke-dasharray:none;stroke-dashoffset:0;stroke-opacity:1" />
    <path
       style="opacity:1;fill:#959595;fill-opacity:1;fill-rule:evenodd;stroke:none;stroke-width:0.5;stroke-linecap:round;stroke-linejoin:round;stroke-miterlimit:4;stroke-dasharray:none;stroke-dashoffset:0;stroke-opacity:1"
       d="M 90.964713,87.236121 L 98.434075,95.040961 L 1266.9162,94.415961 L 1273.434,87.630251 L 90.964713,87.236121 z"
       id="path3710"
       sodipodi:nodetypes="ccccc" />
    <path
       style="opacity:1;fill:url(#linearGradient3708);fill-opacity:1;fill-rule:evenodd;stroke:none;stroke-width:0.5;stroke-linecap:round;stroke-linejoin:round;stroke-miterlimit:4;stroke-dasharray:none;stroke-dashoffset:0;stroke-opacity:1"
       d="M 1273.8024,833.76006 L 1272.6659,833.88633 L 1266.3525,826.56273 L 1266.9643,94.749997 L 1273.6607,87.60714 L 1273.8024,833.76006 z"
       id="path3692" />
    <path
       style="opacity:1;fill:url(#linearGradient3674);fill-opacity:1;fill-rule:evenodd;stroke:none;stroke-width:0.5;stroke-linecap:round;stroke-linejoin:round;stroke-miterlimit:4;stroke-dasharray:none;stroke-dashoffset:0;stroke-opacity:1"
       d="M 98.125,826.80357 L 91.339286,833.85714 L 1273.9286,834.03571 L 1265.1786,824.75 L 98.125,826.80357 z"
       id="path3666" />
    <path
       style="opacity:1;fill:url(#linearGradient3664);fill-opacity:1;fill-rule:evenodd;stroke:none;stroke-width:0.5;stroke-linecap:round;stroke-linejoin:round;stroke-miterlimit:4;stroke-dasharray:none;stroke-dashoffset:0;stroke-opacity:1"
       d="M 90.913729,87.25733 L 98.742411,94.580936 L 98.489873,826.43646 L 91.166267,833.76006 L 90.913729,87.25733 z"
       id="path3644" />
    <rect
       transform="translate(769.35712,140.99496)"
       style="opacity:1;fill:url(#radialGradient3350);fill-opacity:1;fill-rule:evenodd;stroke:none;stroke-width:0.5;stroke-linecap:butt;stroke-linejoin:round;stroke-miterlimit:4;stroke-dasharray:none;stroke-dashoffset:0;stroke-opacity:1"
       id="rect2450"
       width="1169.8213"
       height="733.57141"
       x="-671.67859"
       y="-47.316383"
       rx="0"
       ry="0" />
    <text
       xml:space="preserve"
       style="font-size:12px;font-style:normal;font-variant:normal;font-weight:normal;font-stretch:normal;text-align:start;line-height:100%;writing-mode:lr-tb;text-anchor:start;fill:#000000;fill-opacity:1;stroke:none;stroke-width:1px;stroke-linecap:butt;stroke-linejoin:miter;stroke-opacity:1;font-family:Webdings;-inkscape-font-specification:Webdings"
       x="1275"
       y="640.10712"
       id="text3258"
       sodipodi:linespacing="100%"><tspan
         sodipodi:role="line"
         id="tspan3260"
         x="1275"
         y="640.10712" /></text>
    <rect
       style="opacity:1;fill:none;fill-opacity:1;fill-rule:evenodd;stroke:#ececec;stroke-width:1;stroke-linecap:butt;stroke-linejoin:round;stroke-miterlimit:4;stroke-dasharray:none;stroke-dashoffset:0;stroke-opacity:1"
       id="rect3321"
       width="1240.5358"
       height="822.26929"
       x="61.964279"
       y="50.667866"
       rx="6.4285717"
       ry="6.4285712" />
    <path
       style="opacity:1;fill:none;fill-opacity:1;fill-rule:evenodd;stroke:#b2b4b3;stroke-width:1;stroke-linecap:butt;stroke-linejoin:round;stroke-miterlimit:4;stroke-dasharray:none;stroke-dashoffset:0;stroke-opacity:1"
       d="M 91.071429,87.42857 L 91.071429,833.94643"
       id="path3323"
       sodipodi:nodetypes="cc" />
    <path
       style="opacity:1;fill:none;fill-opacity:1;fill-rule:evenodd;stroke:#959595;stroke-width:1;stroke-linecap:butt;stroke-linejoin:round;stroke-miterlimit:4;stroke-dasharray:none;stroke-dashoffset:0;stroke-opacity:1;display:inline"
       d="M 90.71429,87.42857 L 1273.9286,87.42857"
       id="path3325"
       sodipodi:nodetypes="cc" />
    <path
       style="opacity:1;fill:none;fill-opacity:1;fill-rule:evenodd;stroke:#c0c0c0;stroke-width:1;stroke-linecap:butt;stroke-linejoin:round;stroke-miterlimit:4;stroke-dasharray:none;stroke-dashoffset:0;stroke-opacity:1"
       d="M 90.892857,833.85714 L 1274.2857,833.85714"
       id="path3330" />
    <path
       style="opacity:1;fill:none;fill-opacity:1;fill-rule:evenodd;stroke:#bbbbbd;stroke-width:1;stroke-linecap:butt;stroke-linejoin:round;stroke-miterlimit:4;stroke-dasharray:none;stroke-dashoffset:0;stroke-opacity:1"
       d="M 1273.75,833.67857 L 1273.75,87.517855"
       id="path3332"
       sodipodi:nodetypes="cc" />
    <path
       style="opacity:1;fill:none;fill-opacity:1;fill-rule:evenodd;stroke:#8c8c8c;stroke-width:1;stroke-linecap:round;stroke-linejoin:round;stroke-miterlimit:4;stroke-dasharray:none;stroke-dashoffset:0;stroke-opacity:1"
       d="M 97.678572,93.678569 L 91.428572,87.785711"
       id="path3374"
       sodipodi:nodetypes="cc" />
    <path
       style="opacity:1;fill:none;fill-opacity:1;fill-rule:evenodd;stroke:#878789;stroke-width:1;stroke-linecap:round;stroke-linejoin:round;stroke-miterlimit:4;stroke-dasharray:none;stroke-dashoffset:0;stroke-opacity:1"
       d="M 1273.3035,87.874997 L 1267.7679,93.589283"
       id="path3376"
       sodipodi:nodetypes="cc" />
    <path
       style="opacity:1;fill:none;fill-opacity:1;fill-rule:evenodd;stroke:#d4d4d4;stroke-width:1;stroke-linecap:round;stroke-linejoin:round;stroke-miterlimit:4;stroke-dasharray:none;stroke-dashoffset:0;stroke-opacity:1"
       d="M 97.60599,827.44661 L 91.418805,833.63379"
       id="path3378" />
    <path
       sodipodi:type="star"
       style="opacity:1;fill:#000000;fill-opacity:1;fill-rule:evenodd;stroke:none;stroke-width:0.69636363;stroke-linecap:butt;stroke-linejoin:round;stroke-miterlimit:4;stroke-dasharray:none;stroke-dashoffset:0;stroke-opacity:1"
       id="path3250"
       sodipodi:sides="3"
       sodipodi:cx="1289.4644"
       sodipodi:cy="690.82141"
       sodipodi:r1="6.2601957"
       sodipodi:r2="3.1300979"
       sodipodi:arg1="-1.5707963"
       sodipodi:arg2="-0.52359878"
       inkscape:flatsided="true"
       inkscape:rounded="0"
       inkscape:randomized="0"
       d="M 1289.4644,684.56122 L 1294.8858,693.95151 L 1284.0429,693.95151 L 1289.4644,684.56122 z"
       transform="matrix(0.7189746,0,0,0.7170582,364.41685,190.2765)" />
    <path
       transform="matrix(0.7189746,0,0,-0.7170582,364.41685,1215.9997)"
       d="M 1289.4644,684.56122 L 1294.8858,693.95151 L 1284.0429,693.95151 L 1289.4644,684.56122 z"
       inkscape:randomized="0"
       inkscape:rounded="0"
       inkscape:flatsided="true"
       sodipodi:arg2="-0.52359878"
       sodipodi:arg1="-1.5707963"
       sodipodi:r2="3.1300979"
       sodipodi:r1="6.2601957"
       sodipodi:cy="690.82141"
       sodipodi:cx="1289.4644"
       sodipodi:sides="3"
       id="path3252"
       style="opacity:1;fill:#000000;fill-opacity:1;fill-rule:evenodd;stroke:none;stroke-width:0.69636363;stroke-linecap:butt;stroke-linejoin:round;stroke-miterlimit:4;stroke-dasharray:none;stroke-dashoffset:0;stroke-opacity:1"
       sodipodi:type="star" />
    <path
       style="opacity:1;fill:none;fill-opacity:1;fill-rule:evenodd;stroke:#000000;stroke-width:1;stroke-linecap:butt;stroke-linejoin:round;stroke-miterlimit:4;stroke-dasharray:none;stroke-dashoffset:0;stroke-opacity:1"
       d="M 1294.5536,756.17857 L 1294.5536,760.46429 L 1289.2857,760.46429"
       id="path3254"
       sodipodi:nodetypes="ccc" />
    <path
       sodipodi:type="star"
       style="opacity:1;fill:#000000;fill-opacity:1;fill-rule:evenodd;stroke:none;stroke-width:1.36878526;stroke-linecap:butt;stroke-linejoin:round;stroke-miterlimit:4;stroke-dasharray:none;stroke-dashoffset:0;stroke-opacity:1"
       id="path3256"
       sodipodi:sides="3"
       sodipodi:cx="1289.4644"
       sodipodi:cy="690.82141"
       sodipodi:r1="6.2601957"
       sodipodi:r2="3.1300979"
       sodipodi:arg1="-1.5707963"
       sodipodi:arg2="-0.52359878"
       inkscape:flatsided="true"
       inkscape:rounded="0"
       inkscape:randomized="0"
       d="M 1289.4644,684.56122 L 1294.8858,693.95151 L 1284.0429,693.95151 L 1289.4644,684.56122 z"
       transform="matrix(0,0.4140315,0.4091711,0,1005.9295,226.57362)" />
    <path
       transform="matrix(0.9285714,0,0,0.9285714,92.239552,58.0571)"
       style="fill:none;fill-opacity:1;fill-rule:evenodd;stroke:#000000;stroke-width:1.07692313;stroke-linecap:round;stroke-linejoin:round;stroke-miterlimit:4;stroke-dashoffset:0;stroke-opacity:1"
       d="M 1292.2602,811.40975 C 1293.8086,812.09725 1294.8893,813.64871 1294.8893,815.45105 C 1294.8893,817.89057 1292.9094,819.87047 1290.4698,819.87047 C 1288.0303,819.87047 1286.0504,817.89057 1286.0504,815.45105 C 1286.0504,813.64676 1287.1334,812.09389 1288.6845,811.40752"
       id="path3262"
       sodipodi:nodetypes="ccsss" />
    <path
       style="opacity:1;fill:none;fill-opacity:1;fill-rule:evenodd;stroke:#000000;stroke-width:1;stroke-linecap:round;stroke-linejoin:round;stroke-miterlimit:4;stroke-dasharray:none;stroke-dashoffset:0;stroke-opacity:1"
       d="M 1290.4699,809.26386 L 1290.4699,813.80955"
       id="path3265"
       sodipodi:nodetypes="cc" />
    <path
       style="opacity:1;fill:none;fill-opacity:0.13145537;fill-rule:evenodd;stroke:#000000;stroke-width:1;stroke-linecap:butt;stroke-linejoin:round;stroke-miterlimit:4;stroke-dasharray:none;stroke-dashoffset:0;stroke-opacity:1"
       d="M 1291.4494,651.23364 C 1289.826,650.39818 1288.8251,650.44318 1287.4394,650.79618 L 1287.4394,645.74542 C 1288.5191,644.80296 1289.9257,645.16831 1291.48,646.12423 C 1292.9772,645.21005 1293.5118,644.43338 1295.675,645.68229 L 1295.675,650.35873 C 1293.8013,649.89349 1292.6107,649.32421 1291.4494,651.23364 z"
       id="path3355"
       sodipodi:nodetypes="ccccccc" />
    <path
       style="opacity:1;fill:none;fill-opacity:0.13145537;fill-rule:evenodd;stroke:#000000;stroke-width:1;stroke-linecap:butt;stroke-linejoin:round;stroke-miterlimit:4;stroke-dasharray:none;stroke-dashoffset:0;stroke-opacity:1"
       d="M 1291.5179,646.17857 L 1291.5179,651.44643"
       id="path3357" />
    <path
       id="path3365"
       style="opacity:1;fill:#e4e4e4;fill-opacity:1;fill-rule:evenodd;stroke:none;stroke-width:1;stroke-linecap:butt;stroke-linejoin:round;stroke-miterlimit:4;stroke-dasharray:none;stroke-dashoffset:0;stroke-opacity:1"
       d="M 1257.5718,855.82143 C 1255.985,855.82143 1254.3575,856.78096 1254.3575,859.03571 L 1254.3575,867.96429 C 1254.3575,870.82247 1251.7222,870.82143 1250.2503,870.82143 C 1248.7784,870.82143 1266.1148,870.82143 1264.6429,870.82143 C 1263.171,870.82143 1260.5357,870.82247 1260.5357,867.96429 L 1260.5357,859.03571 C 1260.5357,856.78096 1258.9082,855.82143 1257.3214,855.82143"
       sodipodi:nodetypes="cccccccc" />
    <rect
       style="opacity:1;fill:#1b1b1b;fill-opacity:1;fill-rule:evenodd;stroke:none;stroke-width:1;stroke-linecap:round;stroke-linejoin:round;stroke-miterlimit:4;stroke-dasharray:none;stroke-dashoffset:0;stroke-opacity:1;display:inline"
       id="rect3813"
       width="44.642857"
       height="25"
       x="1223.0051"
       y="58.16824"
       rx="4.2857146"
       ry="4.2857146" />
    <rect
       ry="4.2857146"
       rx="4.2857146"
       y="58.16824"
       x="1186.9337"
       height="25"
       width="33.92857"
       id="rect3815"
       style="opacity:1;fill:#1b1b1b;fill-opacity:1;fill-rule:evenodd;stroke:none;stroke-width:1;stroke-linecap:round;stroke-linejoin:round;stroke-miterlimit:4;stroke-dasharray:none;stroke-dashoffset:0;stroke-opacity:1;display:inline" />
    <path
       style="font-size:22.65601158px;font-style:normal;font-variant:normal;font-weight:normal;font-stretch:normal;text-align:start;line-height:100%;writing-mode:lr-tb;text-anchor:start;fill:#e4e4e4;fill-opacity:1;stroke:none;stroke-width:1px;stroke-linecap:butt;stroke-linejoin:miter;stroke-opacity:1;display:inline;font-family:Webdings;-inkscape-font-specification:Webdings"
       d="M 1213.3124,70.337449 C 1212.7445,71.362581 1212.0475,72.236518 1211.2215,72.959263 C 1209.2377,74.714517 1206.7744,75.592141 1203.8318,75.592139 C 1200.8892,75.592141 1198.4222,74.714517 1196.431,72.959263 C 1195.605,72.236518 1194.9043,71.362581 1194.3291,70.337449 C 1194.9043,69.312332 1195.605,68.434707 1196.431,67.704573 C 1198.4222,65.949333 1200.8892,65.071709 1203.8318,65.071696 C 1206.7744,65.071709 1209.2377,65.949333 1211.2215,67.704573 C 1212.0475,68.434707 1212.7445,69.312332 1213.3124,70.337449 M 1211.5092,70.337449 C 1211.1478,69.703207 1210.709,69.135332 1210.1927,68.633823 C 1208.9537,67.439083 1207.4271,66.69052 1205.6129,66.388134 C 1206.402,66.727395 1207.0362,67.247333 1207.5156,67.947948 C 1208.0023,68.670707 1208.2457,69.467207 1208.2457,70.337449 C 1208.2457,71.200331 1208.006,71.985768 1207.5267,72.693763 C 1207.0547,73.401767 1206.4315,73.929079 1205.6571,74.275701 C 1208.3268,73.818455 1210.2775,72.505705 1211.5092,70.337449 M 1207.3275,70.337449 C 1207.3275,69.393457 1206.9846,68.585895 1206.2987,67.91476 C 1205.6128,67.243645 1204.7868,66.908083 1203.8207,66.908072 C 1203.3118,66.908083 1202.8288,67.011333 1202.3715,67.217822 L 1202.0065,66.388134 C 1199.3293,66.845395 1197.3713,68.161832 1196.1323,70.337449 C 1196.4937,70.971706 1196.9288,71.535893 1197.4377,72.030012 C 1198.6693,73.217392 1200.1812,73.965954 1201.9733,74.275701 C 1201.1989,73.929079 1200.5757,73.401767 1200.1037,72.693763 C 1199.6317,71.985768 1199.3957,71.200331 1199.3957,70.337449 C 1199.3957,69.813831 1199.4879,69.304957 1199.6723,68.810823 L 1200.5573,69.087386 C 1200.395,69.493019 1200.3139,69.909706 1200.3139,70.337449 C 1200.3139,71.288831 1200.6568,72.10008 1201.3427,72.7712 C 1202.0286,73.434955 1202.8546,73.76683 1203.8207,73.766826 C 1204.7868,73.76683 1205.6128,73.434955 1206.2987,72.7712 C 1206.9846,72.10008 1207.3275,71.288831 1207.3275,70.337449 M 1206.4757,70.337449 C 1206.4757,71.052831 1206.2139,71.664956 1205.6903,72.173825 C 1205.174,72.682705 1204.5508,72.937142 1203.8207,72.937138 C 1203.0832,72.937142 1202.4563,72.682705 1201.9401,72.173825 C 1201.4238,71.664956 1201.1657,71.052831 1201.1657,70.337449 C 1201.1657,70.020331 1201.221,69.714269 1201.3317,69.419261 L 1204.042,70.647199 L 1202.7698,67.95901 C 1203.1017,67.81152 1203.452,67.73777 1203.8207,67.73776 C 1204.5508,67.73777 1205.174,67.992207 1205.6903,68.501073 C 1206.2139,69.009957 1206.4757,69.622082 1206.4757,70.337449"
       id="text3817" />
    <path
       style="font-size:19.82842827px;font-style:normal;font-variant:normal;font-weight:normal;font-stretch:normal;text-align:start;line-height:100%;writing-mode:lr-tb;text-anchor:start;fill:#e4e4e4;fill-opacity:1;stroke:none;stroke-width:1px;stroke-linecap:butt;stroke-linejoin:miter;stroke-opacity:1;font-family:Webdings;-inkscape-font-specification:Webdings"
       d="M 1244.4757,68.293593 C 1244.4757,70.210604 1243.8948,71.982381 1242.7329,73.608929 C 1243.3009,72.395473 1243.5849,71.030333 1243.585,69.513506 C 1243.5849,68.099963 1243.3558,66.78646 1242.8975,65.572994 C 1242.336,64.101363 1241.5259,63.091224 1240.4674,62.542575 C 1241.7583,62.955679 1242.7555,63.678589 1243.4591,64.711309 C 1244.1368,65.71823 1244.4757,66.912324 1244.4757,68.293593 M 1242.7039,68.613094 C 1242.7039,70.149286 1242.2392,71.566062 1241.3097,72.863426 C 1241.7615,71.895244 1241.9874,70.804424 1241.9874,69.590961 C 1241.9874,68.461418 1241.8035,67.412552 1241.4356,66.44436 C 1240.9902,65.263184 1240.3415,64.453137 1239.4895,64.014216 C 1240.5222,64.343409 1241.3194,64.92432 1241.8809,65.756949 C 1242.4296,66.557323 1242.7039,67.509371 1242.7039,68.613094 M 1241.1064,68.942277 C 1241.1064,70.175104 1240.732,71.311107 1239.9833,72.350288 C 1240.3512,71.569289 1240.5352,70.694696 1240.5352,69.726507 C 1240.5352,68.822874 1240.3867,67.983781 1240.0898,67.209226 C 1239.7348,66.266868 1239.2184,65.618185 1238.5407,65.263174 C 1239.3604,65.527821 1239.993,65.989322 1240.4383,66.647679 C 1240.8837,67.299598 1241.1064,68.064463 1241.1064,68.942277 M 1239.3637,70.810874 C 1239.3636,71.527334 1239.2959,72.156654 1239.1603,72.698835 C 1238.9538,73.550839 1238.6149,73.97684 1238.1438,73.976839 C 1238.0211,73.97684 1237.7532,73.838067 1237.3402,73.56052 C 1236.8367,73.218429 1235.875,72.934429 1234.455,72.708517 C 1233.2802,72.514882 1232.2507,72.418064 1231.3665,72.418061 C 1231.1212,72.418064 1230.9985,72.614928 1230.9985,73.008654 C 1230.9985,73.144202 1231.0502,73.337839 1231.1535,73.589565 C 1231.2567,73.83484 1231.3084,74.028476 1231.3084,74.170476 C 1231.3084,74.312477 1231.3923,74.470614 1231.5601,74.644887 C 1231.7279,74.81916 1231.8118,74.957933 1231.8118,75.061206 C 1231.8118,75.087024 1231.8021,75.125752 1231.7828,75.177388 C 1231.7699,75.229025 1231.7634,75.267752 1231.7634,75.293571 C 1231.7634,75.383934 1231.8376,75.513025 1231.9861,75.680845 C 1232.141,75.848662 1232.2185,75.99389 1232.2185,76.116528 C 1232.2185,76.174618 1232.1926,76.248845 1232.141,76.33921 C 1232.0958,76.429573 1232.0732,76.500573 1232.0732,76.552211 C 1232.0732,76.629664 1232.112,76.716801 1232.1894,76.813621 C 1232.2669,76.916892 1232.3056,76.987892 1232.3056,77.026622 C 1232.3056,77.142802 1232.1507,77.200893 1231.8409,77.200895 C 1231.1631,77.200893 1230.6855,77.000801 1230.408,76.60062 C 1230.2337,76.355345 1230.0691,75.842208 1229.9142,75.061206 C 1229.6108,73.602475 1229.0944,72.87311 1228.3651,72.873108 C 1228.3393,72.87311 1228.3005,72.879565 1228.2489,72.892472 C 1228.1973,72.898928 1228.1585,72.902156 1228.1327,72.902154 C 1227.3065,72.902156 1226.8934,72.146972 1226.8934,70.636601 C 1226.8934,69.771694 1227.3162,69.148829 1228.1618,68.768004 C 1228.6007,68.606646 1229.2558,68.351691 1230.1272,68.003138 C 1231.0437,67.615871 1232.0474,67.022052 1233.1382,66.221677 C 1234.158,65.479412 1234.8777,64.843638 1235.2973,64.314353 C 1235.4651,63.423634 1235.8169,62.97827 1236.3526,62.978258 C 1236.9851,62.97827 1237.5951,63.675362 1238.1825,65.069537 C 1238.5762,66.011913 1238.8763,67.002688 1239.0829,68.041865 C 1239.2701,68.977783 1239.3636,69.900785 1239.3637,70.810874 M 1227.455,72.795653 C 1226.7579,72.750474 1226.2641,72.66011 1225.9737,72.524562 C 1225.5154,72.298654 1225.2863,71.88879 1225.2863,71.294967 C 1225.2863,70.707605 1225.4702,70.271922 1225.8381,69.987917 C 1225.851,69.975013 1226.2835,69.745876 1227.1355,69.300506 C 1226.8321,69.642603 1226.6804,70.165422 1226.6804,70.868965 C 1226.6804,71.720971 1226.9386,72.3632 1227.455,72.795653 M 1236.8851,70.16219 C 1236.8851,69.478012 1236.7689,68.835783 1236.5366,68.235502 C 1236.2784,67.564235 1235.9234,67.093052 1235.4716,66.821952 C 1235.7168,69.119784 1236.0944,70.843151 1236.6043,71.99206 C 1236.7915,71.424061 1236.8851,70.814106 1236.8851,70.16219 M 1236.8754,72.979609 C 1236.3074,72.114699 1235.8556,71.020651 1235.52,69.697462 C 1235.2101,68.477555 1235.0552,67.299598 1235.0552,66.163586 L 1235.1811,65.059855 C 1234.7486,65.621412 1234.1548,66.147459 1233.3996,66.637997 C 1232.7155,67.044642 1232.0345,67.454507 1231.3568,67.867592 C 1230.5564,68.3646 1230.1562,68.942283 1230.1562,69.600643 C 1230.1562,70.175104 1230.2595,70.672105 1230.466,71.091648 C 1230.7242,71.608016 1231.105,71.908153 1231.6085,71.99206 C 1231.6408,71.998517 1231.9958,72.014654 1232.6735,72.040469 C 1234.2807,72.105018 1235.6813,72.418064 1236.8754,72.979609 M 1226.7289,72.389016 C 1226.4771,71.685471 1226.3513,71.133606 1226.3513,70.733419 C 1226.3513,70.455877 1226.3868,70.220286 1226.4578,70.026644 L 1226.2351,70.084735 C 1226.1576,70.38165 1226.1189,70.697923 1226.1189,71.033557 C 1226.1189,71.311107 1226.2318,71.762926 1226.4578,72.389016 L 1226.7289,72.389016 M 1226.1963,72.330925 C 1225.964,71.775835 1225.8478,71.37888 1225.8478,71.140057 C 1225.8478,70.901242 1225.8736,70.604332 1225.9253,70.249327 L 1225.6542,70.433282 C 1225.609,70.691469 1225.5864,70.933515 1225.5864,71.159421 C 1225.5864,71.456334 1225.709,71.81779 1225.9543,72.243788 L 1226.1963,72.330925"
       id="text3825" />
    <path
       transform="scale(0.8084585,1.2369219)"
       style="font-size:8.59301758px;font-style:normal;font-variant:normal;font-weight:normal;font-stretch:normal;text-align:start;line-height:100%;writing-mode:lr-tb;text-anchor:start;fill:#e4e4e4;fill-opacity:1;stroke:none;stroke-width:1px;stroke-linecap:butt;stroke-linejoin:miter;stroke-opacity:1;font-family:Sans;-inkscape-font-specification:Sans"
       d="M 1541.6684,54.408668 L 1542.8222,54.408668 L 1542.8222,50.426146 L 1541.567,50.677895 L 1541.567,50.034537 L 1542.8152,49.782789 L 1543.5215,49.782789 L 1543.5215,54.408668 L 1544.6754,54.408668 L 1544.6754,55.003075 L 1541.6684,55.003075 L 1541.6684,54.408668 M 1547.7034,52.111463 C 1547.3863,52.111466 1547.1346,52.219857 1546.9481,52.436638 C 1546.764,52.653424 1546.6719,52.950627 1546.6719,53.328247 C 1546.6719,53.703541 1546.764,54.000743 1546.9481,54.219857 C 1547.1346,54.436641 1547.3863,54.545033 1547.7034,54.545032 C 1548.0204,54.545033 1548.271,54.436641 1548.4551,54.219857 C 1548.6416,54.000743 1548.7348,53.703541 1548.7348,53.328247 C 1548.7348,52.950627 1548.6416,52.653424 1548.4551,52.436638 C 1548.271,52.219857 1548.0204,52.111466 1547.7034,52.111463 M 1549.1055,49.898173 L 1549.1055,50.541531 C 1548.9283,50.457619 1548.7488,50.393517 1548.567,50.349223 C 1548.3875,50.304939 1548.2092,50.282794 1548.032,50.282789 C 1547.5658,50.282794 1547.2092,50.440137 1546.9621,50.754818 C 1546.7173,51.069507 1546.5775,51.545032 1546.5425,52.181393 C 1546.68,51.978599 1546.8525,51.823587 1547.06,51.716357 C 1547.2675,51.606804 1547.4959,51.552025 1547.7453,51.552022 C 1548.2698,51.552025 1548.6835,51.711699 1548.9866,52.031043 C 1549.2919,52.348062 1549.4446,52.780464 1549.4446,53.328247 C 1549.4446,53.86438 1549.2861,54.29445 1548.9691,54.618459 C 1548.6521,54.942469 1548.2302,55.104473 1547.7034,55.104473 C 1547.0996,55.104473 1546.6381,54.873704 1546.3187,54.412165 C 1545.9994,53.948296 1545.8397,53.276967 1545.8397,52.398176 C 1545.8397,51.573004 1546.0355,50.915661 1546.4271,50.426146 C 1546.8187,49.934309 1547.3444,49.688388 1548.0041,49.688383 C 1548.1812,49.688388 1548.3595,49.705871 1548.539,49.740831 C 1548.7208,49.775801 1548.9097,49.828249 1549.1055,49.898173 M 1552.1754,50.247824 C 1551.8118,50.247829 1551.5379,50.427316 1551.3537,50.786286 C 1551.1719,51.142934 1551.081,51.68023 1551.081,52.398176 C 1551.081,53.113797 1551.1719,53.651093 1551.3537,54.010066 C 1551.5379,54.366711 1551.8118,54.545033 1552.1754,54.545032 C 1552.5414,54.545033 1552.8152,54.366711 1552.9971,54.010066 C 1553.1812,53.651093 1553.2733,53.113797 1553.2733,52.398176 C 1553.2733,51.68023 1553.1812,51.142934 1552.9971,50.786286 C 1552.8152,50.427316 1552.5414,50.247829 1552.1754,50.247824 M 1552.1754,49.688383 C 1552.7605,49.688388 1553.2069,49.920323 1553.5146,50.384188 C 1553.8246,50.845731 1553.9796,51.51706 1553.9796,52.398176 C 1553.9796,53.276967 1553.8246,53.948296 1553.5146,54.412165 C 1553.2069,54.873704 1552.7605,55.104473 1552.1754,55.104473 C 1551.5903,55.104473 1551.1428,54.873704 1550.8327,54.412165 C 1550.525,53.948296 1550.3712,53.276967 1550.3712,52.398176 C 1550.3712,51.51706 1550.525,50.845731 1550.8327,50.384188 C 1551.1428,49.920323 1551.5903,49.688388 1552.1754,49.688383 M 1556.7348,50.247824 C 1556.3712,50.247829 1556.0973,50.427316 1555.9132,50.786286 C 1555.7313,51.142934 1555.6404,51.68023 1555.6404,52.398176 C 1555.6404,53.113797 1555.7313,53.651093 1555.9132,54.010066 C 1556.0973,54.366711 1556.3712,54.545033 1556.7348,54.545032 C 1557.1008,54.545033 1557.3747,54.366711 1557.5565,54.010066 C 1557.7407,53.651093 1557.8327,53.113797 1557.8327,52.398176 C 1557.8327,51.68023 1557.7407,51.142934 1557.5565,50.786286 C 1557.3747,50.427316 1557.1008,50.247829 1556.7348,50.247824 M 1556.7348,49.688383 C 1557.3199,49.688388 1557.7663,49.920323 1558.074,50.384188 C 1558.384,50.845731 1558.539,51.51706 1558.539,52.398176 C 1558.539,53.276967 1558.384,53.948296 1558.074,54.412165 C 1557.7663,54.873704 1557.3199,55.104473 1556.7348,55.104473 C 1556.1498,55.104473 1555.7022,54.873704 1555.3922,54.412165 C 1555.0845,53.948296 1554.9306,53.276967 1554.9306,52.398176 C 1554.9306,51.51706 1555.0845,50.845731 1555.3922,50.384188 C 1555.7022,49.920323 1556.1498,49.688388 1556.7348,49.688383 M 1559.8572,54.114962 L 1560.595,54.114962 L 1560.595,55.003075 L 1559.8572,55.003075 L 1559.8572,54.114962 M 1559.8572,51.300273 L 1560.595,51.300273 L 1560.595,52.188386 L 1559.8572,52.188386 L 1559.8572,51.300273 M 1562.3258,54.408668 L 1563.4796,54.408668 L 1563.4796,50.426146 L 1562.2244,50.677895 L 1562.2244,50.034537 L 1563.4726,49.782789 L 1564.1789,49.782789 L 1564.1789,54.408668 L 1565.3328,54.408668 L 1565.3328,55.003075 L 1562.3258,55.003075 L 1562.3258,54.408668 M 1543.0145,57.981297 C 1543.111,57.807872 1543.2264,57.6799 1543.3607,57.59738 C 1543.495,57.514865 1543.653,57.473606 1543.8348,57.473604 C 1544.0796,57.473606 1544.2684,57.55962 1544.4013,57.731646 C 1544.5341,57.902278 1544.6006,58.145634 1544.6006,58.461717 L 1544.6006,59.8799 L 1544.2124,59.8799 L 1544.2124,58.474304 C 1544.2124,58.249131 1544.1726,58.081998 1544.0929,57.972905 C 1544.0131,57.863816 1543.8915,57.809271 1543.7278,57.809268 C 1543.5278,57.809271 1543.3698,57.875704 1543.2537,58.008569 C 1543.1376,58.141438 1543.0796,58.322557 1543.0796,58.551927 L 1543.0796,59.8799 L 1542.6915,59.8799 L 1542.6915,58.474304 C 1542.6915,58.247732 1542.6516,58.080599 1542.5719,57.972905 C 1542.4922,57.863816 1542.3691,57.809271 1542.2027,57.809268 C 1542.0054,57.809271 1541.8488,57.876403 1541.7327,58.010667 C 1541.6166,58.143536 1541.5586,58.323956 1541.5586,58.551927 L 1541.5586,59.8799 L 1541.1705,59.8799 L 1541.1705,57.530247 L 1541.5586,57.530247 L 1541.5586,57.895283 C 1541.6467,57.751229 1541.7523,57.644935 1541.8754,57.576401 C 1541.9985,57.507872 1542.1446,57.473606 1542.3138,57.473604 C 1542.4845,57.473606 1542.6292,57.516963 1542.7481,57.603674 C 1542.8684,57.690389 1542.9572,57.816264 1543.0145,57.981297 M 1546.2831,57.800877 C 1546.0761,57.800879 1545.9124,57.881998 1545.7922,58.044234 C 1545.6719,58.205075 1545.6117,58.426054 1545.6117,58.707172 C 1545.6117,58.988292 1545.6712,59.20997 1545.7901,59.372207 C 1545.9103,59.533047 1546.0747,59.613467 1546.2831,59.613467 C 1546.4887,59.613467 1546.6516,59.532348 1546.7719,59.37011 C 1546.8922,59.207872 1546.9523,58.986893 1546.9523,58.707172 C 1546.9523,58.428851 1546.8922,58.208571 1546.7719,58.046332 C 1546.6516,57.882697 1546.4887,57.800879 1546.2831,57.800877 M 1546.2831,57.473604 C 1546.6187,57.473606 1546.8824,57.582697 1547.074,57.800877 C 1547.2656,58.019061 1547.3614,58.321159 1547.3614,58.707172 C 1547.3614,59.091788 1547.2656,59.393886 1547.074,59.613467 C 1546.8824,59.831649 1546.6187,59.94074 1546.2831,59.94074 C 1545.946,59.94074 1545.6817,59.831649 1545.4901,59.613467 C 1545.2999,59.393886 1545.2048,59.091788 1545.2048,58.707172 C 1545.2048,58.321159 1545.2999,58.019061 1545.4901,57.800877 C 1545.6817,57.582697 1545.946,57.473606 1546.2831,57.473604 M 1549.4971,57.599478 L 1549.4971,57.964513 C 1549.388,57.908571 1549.2747,57.866613 1549.1572,57.838639 C 1549.0397,57.810669 1548.918,57.796683 1548.7922,57.796681 C 1548.6006,57.796683 1548.4565,57.826054 1548.36,57.884793 C 1548.2649,57.943536 1548.2173,58.031648 1548.2173,58.149129 C 1548.2173,58.238641 1548.2516,58.309271 1548.3201,58.361017 C 1548.3887,58.411369 1548.5264,58.45962 1548.7334,58.505773 L 1548.8656,58.535144 C 1549.1397,58.593886 1549.3341,58.677103 1549.4488,58.784794 C 1549.5649,58.891089 1549.6229,59.04004 1549.6229,59.231648 C 1549.6229,59.44983 1549.5362,59.622558 1549.3628,59.74983 C 1549.1908,59.877103 1548.9537,59.94074 1548.6516,59.94074 C 1548.5257,59.94074 1548.3943,59.928152 1548.2572,59.902977 C 1548.1215,59.879201 1547.9782,59.842837 1547.8271,59.793886 L 1547.8271,59.395284 C 1547.9698,59.469411 1548.1104,59.525355 1548.2488,59.563117 C 1548.3873,59.599481 1548.5243,59.617663 1548.66,59.617662 C 1548.8418,59.617663 1548.9817,59.586893 1549.0796,59.525355 C 1549.1775,59.462418 1549.2264,59.374306 1549.2264,59.261019 C 1549.2264,59.156124 1549.1908,59.075704 1549.1194,59.019759 C 1549.0495,58.963816 1548.895,58.90997 1548.6558,58.858221 L 1548.5215,58.826752 C 1548.2824,58.776404 1548.1097,58.699481 1548.0034,58.595983 C 1547.8971,58.491089 1547.8439,58.347732 1547.8439,58.165912 C 1547.8439,57.944935 1547.9222,57.774306 1548.0789,57.654024 C 1548.2355,57.533746 1548.4579,57.473606 1548.746,57.473604 C 1548.8887,57.473606 1549.0229,57.484096 1549.1488,57.505072 C 1549.2747,57.526054 1549.3908,57.557522 1549.4971,57.599478 M 1550.6215,56.863113 L 1550.6215,57.530247 L 1551.4167,57.530247 L 1551.4167,57.830248 L 1550.6215,57.830248 L 1550.6215,59.105774 C 1550.6215,59.297383 1550.6474,59.42046 1550.6992,59.475005 C 1550.7523,59.529551 1550.8593,59.556823 1551.0201,59.556823 L 1551.4167,59.556823 L 1551.4167,59.8799 L 1551.0201,59.8799 C 1550.7222,59.8799 1550.5166,59.824656 1550.4034,59.714166 C 1550.2901,59.602278 1550.2334,59.399481 1550.2334,59.105774 L 1550.2334,57.830248 L 1549.9502,57.830248 L 1549.9502,57.530247 L 1550.2334,57.530247 L 1550.2334,56.863113 L 1550.6215,56.863113 M 1542.253,62.995289 C 1541.9411,62.99529 1541.725,63.030954 1541.6047,63.102282 C 1541.4845,63.173612 1541.4243,63.29529 1541.4243,63.467317 C 1541.4243,63.604381 1541.4691,63.713472 1541.5586,63.794591 C 1541.6495,63.874311 1541.7726,63.914171 1541.9278,63.914171 C 1542.1418,63.914171 1542.3131,63.838647 1542.4418,63.687597 C 1542.5719,63.53515 1542.6369,63.333052 1542.6369,63.081303 L 1542.6369,62.995289 L 1542.253,62.995289 M 1543.0229,62.835848 L 1543.0229,64.176409 L 1542.6369,64.176409 L 1542.6369,63.819765 C 1542.5488,63.962423 1542.439,64.068018 1542.3075,64.136549 C 1542.1761,64.203682 1542.0152,64.237248 1541.825,64.237248 C 1541.5845,64.237248 1541.3929,64.170115 1541.2502,64.03585 C 1541.1089,63.900185 1541.0383,63.719066 1541.0383,63.492492 C 1541.0383,63.228157 1541.1264,63.028856 1541.3027,62.894589 C 1541.4803,62.760325 1541.7446,62.693192 1542.0957,62.693191 L 1542.6369,62.693191 L 1542.6369,62.655428 C 1542.6369,62.477807 1542.5782,62.340744 1542.4607,62.244239 C 1542.3446,62.146339 1542.181,62.097388 1541.9698,62.097386 C 1541.8355,62.097388 1541.7047,62.113472 1541.5775,62.145637 C 1541.4502,62.177807 1541.3278,62.226059 1541.2103,62.290393 L 1541.2103,61.933749 C 1541.3516,61.879206 1541.4887,61.838646 1541.6215,61.812071 C 1541.7544,61.784101 1541.8838,61.770115 1542.0096,61.770113 C 1542.3495,61.770115 1542.6034,61.858227 1542.7712,62.034449 C 1542.939,62.210674 1543.0229,62.477807 1543.0229,62.835848 M 1543.5957,61.826756 L 1543.9817,61.826756 L 1544.4642,63.660325 L 1544.9446,61.826756 L 1545.3999,61.826756 L 1545.8824,63.660325 L 1546.3628,61.826756 L 1546.7488,61.826756 L 1546.1341,64.176409 L 1545.6789,64.176409 L 1545.1733,62.250533 L 1544.6656,64.176409 L 1544.2103,64.176409 L 1543.5957,61.826756 M 1549.346,62.905079 L 1549.346,63.09389 L 1547.5712,63.09389 C 1547.588,63.359626 1547.6677,63.562423 1547.8104,63.702283 C 1547.9544,63.840745 1548.1544,63.909976 1548.4104,63.909975 C 1548.5586,63.909976 1548.702,63.891794 1548.8404,63.85543 C 1548.9803,63.819066 1549.1187,63.764521 1549.2558,63.691793 L 1549.2558,64.056829 C 1549.1173,64.11557 1548.9754,64.160325 1548.8299,64.191095 C 1548.6845,64.221864 1548.5369,64.237248 1548.3873,64.237248 C 1548.0124,64.237248 1547.7152,64.128157 1547.4957,63.909975 C 1547.2775,63.691794 1547.1684,63.396689 1547.1684,63.02466 C 1547.1684,62.640045 1547.2719,62.33515 1547.4789,62.109973 C 1547.6873,61.883402 1547.9677,61.770115 1548.3201,61.770113 C 1548.6362,61.770115 1548.8859,61.872213 1549.0691,62.076407 C 1549.2537,62.279206 1549.346,62.55543 1549.346,62.905079 M 1548.96,62.791792 C 1548.9572,62.580605 1548.8978,62.412073 1548.7817,62.286197 C 1548.667,62.160325 1548.5145,62.097388 1548.3243,62.097386 C 1548.109,62.097388 1547.9362,62.158227 1547.8062,62.279903 C 1547.6775,62.401584 1547.6034,62.572912 1547.5838,62.79389 L 1548.96,62.791792 M 1551.4775,61.895987 L 1551.4775,62.261022 C 1551.3684,62.20508 1551.2551,62.163122 1551.1376,62.135148 C 1551.0201,62.107178 1550.8985,62.093192 1550.7726,62.09319 C 1550.581,62.093192 1550.4369,62.122563 1550.3404,62.181302 C 1550.2453,62.240045 1550.1978,62.328157 1550.1978,62.445638 C 1550.1978,62.53515 1550.232,62.605779 1550.3006,62.657526 C 1550.3691,62.707877 1550.5069,62.756129 1550.7139,62.802282 L 1550.846,62.831652 C 1551.1201,62.890395 1551.3146,62.973612 1551.4292,63.081303 C 1551.5453,63.187598 1551.6034,63.336549 1551.6034,63.528157 C 1551.6034,63.746339 1551.5166,63.919066 1551.3432,64.046339 C 1551.1712,64.173612 1550.9341,64.237248 1550.632,64.237248 C 1550.5062,64.237248 1550.3747,64.224661 1550.2376,64.199486 C 1550.102,64.17571 1549.9586,64.139346 1549.8076,64.090395 L 1549.8076,63.691793 C 1549.9502,63.76592 1550.0908,63.821864 1550.2292,63.859626 C 1550.3677,63.89599 1550.5048,63.914171 1550.6404,63.914171 C 1550.8222,63.914171 1550.9621,63.883402 1551.06,63.821863 C 1551.1579,63.758927 1551.2069,63.670815 1551.2069,63.557527 C 1551.2069,63.452633 1551.1712,63.372213 1551.0999,63.316268 C 1551.0299,63.260325 1550.8754,63.206479 1550.6362,63.15473 L 1550.502,63.123261 C 1550.2628,63.072912 1550.0901,62.995989 1549.9838,62.892492 C 1549.8775,62.787598 1549.8243,62.644241 1549.8243,62.462421 C 1549.8243,62.241444 1549.9027,62.070814 1550.0593,61.950532 C 1550.2159,61.830255 1550.4383,61.770115 1550.7264,61.770113 C 1550.8691,61.770115 1551.0034,61.780604 1551.1292,61.801581 C 1551.2551,61.822563 1551.3712,61.854031 1551.4775,61.895987 M 1553.1306,62.097386 C 1552.9236,62.097388 1552.76,62.178507 1552.6397,62.340743 C 1552.5194,62.501584 1552.4593,62.722563 1552.4593,63.00368 C 1552.4593,63.284801 1552.5187,63.506479 1552.6376,63.668716 C 1552.7579,63.829556 1552.9222,63.909976 1553.1306,63.909975 C 1553.3362,63.909976 1553.4992,63.828857 1553.6195,63.666618 C 1553.7397,63.504381 1553.7999,63.283402 1553.7999,63.00368 C 1553.7999,62.72536 1553.7397,62.50508 1553.6195,62.342841 C 1553.4992,62.179206 1553.3362,62.097388 1553.1306,62.097386 M 1553.1306,61.770113 C 1553.4663,61.770115 1553.7299,61.879206 1553.9215,62.097386 C 1554.1132,62.31557 1554.209,62.617668 1554.209,63.00368 C 1554.209,63.388297 1554.1132,63.690395 1553.9215,63.909975 C 1553.7299,64.128157 1553.4663,64.237248 1553.1306,64.237248 C 1552.7936,64.237248 1552.5292,64.128157 1552.3376,63.909975 C 1552.1474,63.690395 1552.0523,63.388297 1552.0523,63.00368 C 1552.0523,62.617668 1552.1474,62.31557 1552.3376,62.097386 C 1552.5292,61.879206 1552.7936,61.770115 1553.1306,61.770113 M 1556.6761,62.277805 C 1556.7726,62.104381 1556.888,61.976409 1557.0223,61.893889 C 1557.1565,61.811374 1557.3146,61.770115 1557.4964,61.770113 C 1557.7411,61.770115 1557.9299,61.856129 1558.0628,62.028155 C 1558.1957,62.198786 1558.2621,62.442143 1558.2621,62.758226 L 1558.2621,64.176409 L 1557.874,64.176409 L 1557.874,62.770813 C 1557.874,62.54564 1557.8341,62.378507 1557.7544,62.269414 C 1557.6747,62.160325 1557.553,62.105779 1557.3894,62.105777 C 1557.1894,62.105779 1557.0313,62.172213 1556.9153,62.305078 C 1556.7992,62.437947 1556.7411,62.619066 1556.7411,62.848436 L 1556.7411,64.176409 L 1556.353,64.176409 L 1556.353,62.770813 C 1556.353,62.544241 1556.3132,62.377108 1556.2334,62.269414 C 1556.1537,62.160325 1556.0306,62.105779 1555.8642,62.105777 C 1555.667,62.105779 1555.5104,62.172912 1555.3943,62.307176 C 1555.2782,62.440045 1555.2202,62.620465 1555.2202,62.848436 L 1555.2202,64.176409 L 1554.832,64.176409 L 1554.832,61.826756 L 1555.2202,61.826756 L 1555.2202,62.191791 C 1555.3083,62.047737 1555.4139,61.941444 1555.5369,61.87291 C 1555.66,61.804381 1555.8062,61.770115 1555.9754,61.770113 C 1556.146,61.770115 1556.2908,61.813472 1556.4097,61.900183 C 1556.5299,61.986898 1556.6188,62.112772 1556.6761,62.277805 M 1561.0439,62.905079 L 1561.0439,63.09389 L 1559.2691,63.09389 C 1559.2859,63.359626 1559.3656,63.562423 1559.5083,63.702283 C 1559.6523,63.840745 1559.8523,63.909976 1560.1083,63.909975 C 1560.2565,63.909976 1560.3999,63.891794 1560.5383,63.85543 C 1560.6782,63.819066 1560.8167,63.764521 1560.9537,63.691793 L 1560.9537,64.056829 C 1560.8153,64.11557 1560.6733,64.160325 1560.5278,64.191095 C 1560.3824,64.221864 1560.2348,64.237248 1560.0852,64.237248 C 1559.7104,64.237248 1559.4132,64.128157 1559.1936,63.909975 C 1558.9754,63.691794 1558.8663,63.396689 1558.8663,63.02466 C 1558.8663,62.640045 1558.9698,62.33515 1559.1768,62.109973 C 1559.3852,61.883402 1559.6656,61.770115 1560.0181,61.770113 C 1560.3341,61.770115 1560.5838,61.872213 1560.767,62.076407 C 1560.9516,62.279206 1561.0439,62.55543 1561.0439,62.905079 M 1560.6579,62.791792 C 1560.6551,62.580605 1560.5957,62.412073 1560.4796,62.286197 C 1560.3649,62.160325 1560.2125,62.097388 1560.0223,62.097386 C 1559.8069,62.097388 1559.6341,62.158227 1559.5041,62.279903 C 1559.3754,62.401584 1559.3013,62.572912 1559.2817,62.79389 L 1560.6579,62.791792"
       id="text3829" />
    <path
       sodipodi:type="arc"
       style="opacity:1;fill:#2e2f33;fill-opacity:1;fill-rule:evenodd;stroke:none;stroke-width:1;stroke-linecap:round;stroke-linejoin:round;stroke-miterlimit:4;stroke-dasharray:none;stroke-dashoffset:0;stroke-opacity:1"
       id="path3627"
       sodipodi:cx="665.35712"
       sodipodi:cy="851.89288"
       sodipodi:rx="12.5"
       sodipodi:ry="12.5"
       d="M 677.85712,851.89288 A 12.5,12.5 0 1 1 652.85712,851.89288 A 12.5,12.5 0 1 1 677.85712,851.89288 z"
       transform="matrix(1.0202031,0,0,1.0202031,7.8489744,-17.098439)" />
    <path
       style="fill:none;fill-opacity:1;fill-rule:evenodd;stroke:#d6d6d7;stroke-width:1;stroke-linecap:round;stroke-linejoin:round;stroke-miterlimit:4;stroke-dashoffset:0;stroke-opacity:1"
       d="M 696.64834,852.00529 C 696.64834,857.52529 692.16834,862.00529 686.64834,862.00529 C 681.12834,862.00529 676.64834,857.52529 676.64834,852.00529"
       id="path3629"
       sodipodi:nodetypes="css" />
    <path
       sodipodi:type="arc"
       style="opacity:1;fill:#d6d6d7;fill-opacity:1;fill-rule:evenodd;stroke:none;stroke-width:1;stroke-linecap:round;stroke-linejoin:round;stroke-miterlimit:4;stroke-dasharray:none;stroke-dashoffset:0;stroke-opacity:1"
       id="path3632"
       sodipodi:cx="660.98212"
       sodipodi:cy="847.875"
       sodipodi:rx="1.25"
       sodipodi:ry="1.25"
       d="M 662.23212,847.875 A 1.25,1.25 0 1 1 659.73212,847.875 A 1.25,1.25 0 1 1 662.23212,847.875 z"
       transform="matrix(1.3571429,0,0,1.3571429,-214.77383,-302.70011)" />
    <path
       transform="matrix(1.0714286,0,0,0.8441443,-17.796786,132.54269)"
       d="M 662.23212,847.875 A 1.25,1.25 0 1 1 659.73212,847.875 A 1.25,1.25 0 1 1 662.23212,847.875 z"
       sodipodi:ry="1.25"
       sodipodi:rx="1.25"
       sodipodi:cy="847.875"
       sodipodi:cx="660.98212"
       id="path3636"
       style="opacity:1;fill:#d6d6d7;fill-opacity:1;fill-rule:evenodd;stroke:none;stroke-width:1;stroke-linecap:round;stroke-linejoin:round;stroke-miterlimit:4;stroke-dasharray:none;stroke-dashoffset:0;stroke-opacity:1"
       sodipodi:type="arc" />
    <path
       style="opacity:1;fill:#d6d6d7;fill-opacity:1;fill-rule:evenodd;stroke:none;stroke-width:1;stroke-linecap:round;stroke-linejoin:round;stroke-miterlimit:4;stroke-dasharray:none;stroke-dashoffset:0;stroke-opacity:1"
       d="M 690.48764,847.71949 C 691.84181,848.06239 692.7049,847.66519 693.79121,846.91599 C 693.50865,848.57839 691.61102,849.57209 690.46531,849.30439 L 690.48764,847.71949 z"
       id="path3638"
       sodipodi:nodetypes="cccc" />
    <text
       xml:space="preserve"
       style="font-size:19.08590889px;font-style:normal;font-variant:normal;font-weight:normal;font-stretch:normal;text-align:start;line-height:100%;writing-mode:lr-tb;text-anchor:start;fill:#464646;fill-opacity:1;stroke:none;stroke-width:1px;stroke-linecap:butt;stroke-linejoin:miter;stroke-opacity:1;font-family:Trebuchet MS;-inkscape-font-specification:Trebuchet MS"
       x="63.150967"
       y="128.44087"
       id="text3640"
       sodipodi:linespacing="100%"
       transform="scale(1.5904925,0.6287361)"><tspan
         sodipodi:role="line"
         id="tspan3642"
         x="63.150967"
         y="128.44087"
         style="font-style:italic;fill:#464646;fill-opacity:1;-inkscape-font-specification:Trebuchet MS Italic">FLAT</tspan></text>
  </g>
</svg>
