<?xml version="1.0" standalone="yes"?>

<svg version="1.1" viewBox="0.0 0.0 960.0 720.0" fill="none" stroke="none" stroke-linecap="square" stroke-miterlimit="10" xmlns="http://www.w3.org/2000/svg" xmlns:xlink="http://www.w3.org/1999/xlink"><clipPath id="p.0"><path d="m0 0l960.0 0l0 720.0l-960.0 0l0 -720.0z" clip-rule="nonzero"></path></clipPath><g clip-path="url(#p.0)"><path fill="#d9d9d9" d="m45.075283 48.53888l129.44882 0l0 52.0l-129.44882 0z" fill-rule="nonzero"></path><path stroke="#999999" stroke-width="2.0" stroke-linejoin="round" stroke-linecap="butt" d="m45.075283 48.53888l129.44882 0l0 52.0l-129.44882 0z" fill-rule="nonzero"></path><path fill="#000000" d="m86.814964 80.70294l1.796875 -8.546875l-1.5 0l0.265625 -1.3125l1.5 0l0.28125 -1.390625q0.234375 -1.046875 0.46875 -1.515625q0.234375 -0.46875 0.765625 -0.765625q0.53125 -0.296875 1.453125 -0.296875q0.640625 0 1.859375 0.265625l-0.3125 1.46875q-0.84375 -0.234375 -1.421875 -0.234375q-0.5 0 -0.75 0.25q-0.25 0.25 -0.4375 1.171875l-0.21875 1.046875l1.859375 0l-0.265625 1.3125l-1.875 0l-1.78125 8.546875l-1.6875 0zm4.948929 0l2.0625 -9.859375l1.484375 0l-0.421875 2.015625q0.765625 -1.140625 1.484375 -1.6875q0.734375 -0.546875 1.5 -0.546875q0.5 0 1.234375 0.359375l-0.6875 1.5625q-0.4375 -0.3125 -0.953125 -0.3125q-0.875 0 -1.8125 0.984375q-0.921875 0.984375 -1.453125 3.53125l-0.828125 3.953125l-1.609375 0zm12.868927 -1.21875q-0.875 0.75 -1.6875 1.09375q-0.8125 0.34375 -1.71875 0.34375q-1.375 0 -2.21875 -0.796875q-0.828125 -0.796875 -0.828125 -2.0625q0 -0.8125 0.375 -1.453125q0.390625 -0.640625 1.0 -1.015625q0.625 -0.390625 1.53125 -0.5625q0.5625 -0.109375 2.140625 -0.171875q1.578125 -0.0625 2.265625 -0.328125q0.203125 -0.6875 0.203125 -1.140625q0 -0.59375 -0.4375 -0.921875q-0.578125 -0.46875 -1.703125 -0.46875q-1.046875 0 -1.734375 0.46875q-0.671875 0.46875 -0.96875 1.328125l-1.703125 -0.140625q0.515625 -1.46875 1.640625 -2.25q1.140625 -0.78125 2.859375 -0.78125q1.828125 0 2.890625 0.875q0.8125 0.65625 0.8125 1.6875q0 0.796875 -0.234375 1.828125l-0.546875 2.453125q-0.25 1.171875 -0.25 1.890625q0 0.46875 0.203125 1.34375l-1.703125 0q-0.140625 -0.484375 -0.1875 -1.21875zm0.609375 -3.765625q-0.34375 0.125 -0.75 0.203125q-0.40625 0.078125 -1.34375 0.15625q-1.46875 0.140625 -2.078125 0.34375q-0.59375 0.1875 -0.90625 0.625q-0.3125 0.4375 -0.3125 0.96875q0 0.703125 0.484375 1.15625q0.5 0.453125 1.390625 0.453125q0.84375 0 1.609375 -0.4375q0.765625 -0.4375 1.203125 -1.21875q0.453125 -0.796875 0.703125 -2.25zm3.1100922 4.984375l2.0625 -9.859375l1.671875 0l-0.34375 1.625q0.9375 -1.046875 1.671875 -1.4375q0.734375 -0.40625 1.609375 -0.40625q0.90625 0 1.515625 0.5q0.625 0.484375 0.828125 1.34375q0.75 -0.921875 1.578125 -1.375q0.828125 -0.46875 1.75 -0.46875q1.234375 0 1.84375 0.59375q0.625 0.578125 0.625 1.640625q0 0.453125 -0.21875 1.5l-1.328125 6.34375l-1.671875 0l1.359375 -6.515625q0.171875 -0.796875 0.171875 -1.140625q0 -0.484375 -0.3125 -0.75q-0.296875 -0.28125 -0.859375 -0.28125q-0.75 0 -1.53125 0.453125q-0.78125 0.453125 -1.21875 1.1875q-0.421875 0.734375 -0.75 2.265625l-1.0 4.78125l-1.671875 0l1.390625 -6.65625q0.140625 -0.671875 0.140625 -0.953125q0 -0.484375 -0.296875 -0.78125q-0.296875 -0.296875 -0.78125 -0.296875q-0.71875 0 -1.5 0.453125q-0.78125 0.453125 -1.28125 1.265625q-0.484375 0.8125 -0.796875 2.3125l-0.984375 4.65625l-1.671875 0zm22.790794 -3.34375l1.625 0.15625q-0.359375 1.21875 -1.625 2.3125q-1.265625 1.09375 -3.015625 1.09375q-1.0937424 0 -2.0156174 -0.5q-0.90625 -0.5 -1.390625 -1.46875q-0.46875 -0.96875 -0.46875 -2.203125q0 -1.609375 0.75 -3.125q0.75 -1.515625 1.9375 -2.25q1.1874924 -0.75 2.5624924 -0.75q1.765625 0 2.8125 1.09375q1.0625 1.09375 1.0625 2.984375q0 0.734375 -0.140625 1.484375l-7.2499924 0q-0.03125 0.296875 -0.03125 0.53125q0 1.375 0.625 2.109375q0.640625 0.71875 1.5624924 0.71875q0.859375 0 1.6875 -0.5625q0.84375 -0.5625 1.3125 -1.625zm-4.8906174 -2.453125l5.5312424 0q0.015625 -0.25 0.015625 -0.359375q0 -1.265625 -0.640625 -1.9375q-0.625 -0.671875 -1.625 -0.671875q-1.0625 0 -1.9531174 0.75q-0.890625 0.734375 -1.328125 2.21875z" fill-rule="nonzero"></path><path fill="#d9d9d9" d="m174.52411 48.53888l129.44882 0l0 52.0l-129.44882 0z" fill-rule="nonzero"></path><path stroke="#999999" stroke-width="2.0" stroke-linejoin="round" stroke-linecap="butt" d="m174.52411 48.53888l129.44882 0l0 52.0l-129.44882 0z" fill-rule="nonzero"></path><path fill="#000000" d="m216.26378 80.70294l1.796875 -8.546875l-1.5 0l0.265625 -1.3125l1.5 0l0.28125 -1.390625q0.234375 -1.046875 0.46875 -1.515625q0.234375 -0.46875 0.765625 -0.765625q0.53125 -0.296875 1.453125 -0.296875q0.640625 0 1.859375 0.265625l-0.3125 1.46875q-0.84375 -0.234375 -1.421875 -0.234375q-0.5 0 -0.75 0.25q-0.25 0.25 -0.4375 1.171875l-0.21875 1.046875l1.859375 0l-0.265625 1.3125l-1.875 0l-1.78125 8.546875l-1.6875 0zm4.948929 0l2.0625 -9.859375l1.484375 0l-0.421875 2.015625q0.765625 -1.140625 1.484375 -1.6875q0.734375 -0.546875 1.5 -0.546875q0.5 0 1.234375 0.359375l-0.6875 1.5625q-0.4375 -0.3125 -0.953125 -0.3125q-0.875 0 -1.8125 0.984375q-0.921875 0.984375 -1.453125 3.53125l-0.828125 3.953125l-1.609375 0zm12.868927 -1.21875q-0.875 0.75 -1.6875 1.09375q-0.8125 0.34375 -1.71875 0.34375q-1.375 0 -2.21875 -0.796875q-0.828125 -0.796875 -0.828125 -2.0625q0 -0.8125 0.375 -1.453125q0.390625 -0.640625 1.0 -1.015625q0.625 -0.390625 1.53125 -0.5625q0.5625 -0.109375 2.140625 -0.171875q1.578125 -0.0625 2.265625 -0.328125q0.203125 -0.6875 0.203125 -1.140625q0 -0.59375 -0.4375 -0.921875q-0.578125 -0.46875 -1.703125 -0.46875q-1.046875 0 -1.734375 0.46875q-0.671875 0.46875 -0.96875 1.328125l-1.703125 -0.140625q0.515625 -1.46875 1.640625 -2.25q1.140625 -0.78125 2.859375 -0.78125q1.828125 0 2.890625 0.875q0.8125 0.65625 0.8125 1.6875q0 0.796875 -0.234375 1.828125l-0.546875 2.453125q-0.25 1.171875 -0.25 1.890625q0 0.46875 0.203125 1.34375l-1.703125 0q-0.140625 -0.484375 -0.1875 -1.21875zm0.609375 -3.765625q-0.34375 0.125 -0.75 0.203125q-0.40625 0.078125 -1.34375 0.15625q-1.46875 0.140625 -2.078125 0.34375q-0.59375 0.1875 -0.90625 0.625q-0.3125 0.4375 -0.3125 0.96875q0 0.703125 0.484375 1.15625q0.5 0.453125 1.390625 0.453125q0.84375 0 1.609375 -0.4375q0.765625 -0.4375 1.203125 -1.21875q0.453125 -0.796875 0.703125 -2.25zm3.1100922 4.984375l2.0625 -9.859375l1.671875 0l-0.34375 1.625q0.9375 -1.046875 1.671875 -1.4375q0.734375 -0.40625 1.609375 -0.40625q0.90625 0 1.515625 0.5q0.625 0.484375 0.828125 1.34375q0.75 -0.921875 1.578125 -1.375q0.828125 -0.46875 1.75 -0.46875q1.234375 0 1.84375 0.59375q0.625 0.578125 0.625 1.640625q0 0.453125 -0.21875 1.5l-1.328125 6.34375l-1.671875 0l1.359375 -6.515625q0.171875 -0.796875 0.171875 -1.140625q0 -0.484375 -0.3125 -0.75q-0.296875 -0.28125 -0.859375 -0.28125q-0.75 0 -1.53125 0.453125q-0.78125 0.453125 -1.21875 1.1875q-0.421875 0.734375 -0.75 2.265625l-1.0 4.78125l-1.671875 0l1.390625 -6.65625q0.140625 -0.671875 0.140625 -0.953125q0 -0.484375 -0.296875 -0.78125q-0.296875 -0.296875 -0.78125 -0.296875q-0.71875 0 -1.5 0.453125q-0.78125 0.453125 -1.28125 1.265625q-0.484375 0.8125 -0.796875 2.3125l-0.984375 4.65625l-1.671875 0zm22.790817 -3.34375l1.625 0.15625q-0.359375 1.21875 -1.625 2.3125q-1.265625 1.09375 -3.015625 1.09375q-1.09375 0 -2.0156403 -0.5q-0.90625 -0.5 -1.390625 -1.46875q-0.46875 -0.96875 -0.46875 -2.203125q0 -1.609375 0.75 -3.125q0.75 -1.515625 1.9375153 -2.25q1.1875 -0.75 2.5625 -0.75q1.765625 0 2.8125 1.09375q1.0625 1.09375 1.0625 2.984375q0 0.734375 -0.140625 1.484375l-7.2500153 0q-0.03125 0.296875 -0.03125 0.53125q0 1.375 0.62501526 2.109375q0.640625 0.71875 1.5625 0.71875q0.859375 0 1.6875 -0.5625q0.84375 -0.5625 1.3125 -1.625zm-4.8906403 -2.453125l5.5312653 0q0.015625 -0.25 0.015625 -0.359375q0 -1.265625 -0.640625 -1.9375q-0.625 -0.671875 -1.625 -0.671875q-1.0625 0 -1.953125 0.75q-0.890625 0.734375 -1.3281403 2.21875z" fill-rule="nonzero"></path><path fill="#d9d9d9" d="m303.97293 48.53888l129.44882 0l0 52.0l-129.44882 0z" fill-rule="nonzero"></path><path stroke="#999999" stroke-width="2.0" stroke-linejoin="round" stroke-linecap="butt" d="m303.97293 48.53888l129.44882 0l0 52.0l-129.44882 0z" fill-rule="nonzero"></path><path fill="#000000" d="m345.7126 80.70294l1.796875 -8.546875l-1.5 0l0.265625 -1.3125l1.5 0l0.28125 -1.390625q0.234375 -1.046875 0.46875 -1.515625q0.234375 -0.46875 0.765625 -0.765625q0.53125 -0.296875 1.453125 -0.296875q0.640625 0 1.859375 0.265625l-0.3125 1.46875q-0.84375 -0.234375 -1.421875 -0.234375q-0.5 0 -0.75 0.25q-0.25 0.25 -0.4375 1.171875l-0.21875 1.046875l1.859375 0l-0.265625 1.3125l-1.875 0l-1.78125 8.546875l-1.6875 0zm4.948944 0l2.0625 -9.859375l1.484375 0l-0.421875 2.015625q0.765625 -1.140625 1.484375 -1.6875q0.734375 -0.546875 1.5 -0.546875q0.5 0 1.234375 0.359375l-0.6875 1.5625q-0.4375 -0.3125 -0.953125 -0.3125q-0.875 0 -1.8125 0.984375q-0.921875 0.984375 -1.453125 3.53125l-0.828125 3.953125l-1.609375 0zm12.868927 -1.21875q-0.875 0.75 -1.6875 1.09375q-0.8125 0.34375 -1.71875 0.34375q-1.375 0 -2.21875 -0.796875q-0.828125 -0.796875 -0.828125 -2.0625q0 -0.8125 0.375 -1.453125q0.390625 -0.640625 1.0 -1.015625q0.625 -0.390625 1.53125 -0.5625q0.5625 -0.109375 2.140625 -0.171875q1.578125 -0.0625 2.265625 -0.328125q0.203125 -0.6875 0.203125 -1.140625q0 -0.59375 -0.4375 -0.921875q-0.578125 -0.46875 -1.703125 -0.46875q-1.046875 0 -1.734375 0.46875q-0.671875 0.46875 -0.96875 1.328125l-1.703125 -0.140625q0.515625 -1.46875 1.640625 -2.25q1.140625 -0.78125 2.859375 -0.78125q1.828125 0 2.890625 0.875q0.8125 0.65625 0.8125 1.6875q0 0.796875 -0.234375 1.828125l-0.546875 2.453125q-0.25 1.171875 -0.25 1.890625q0 0.46875 0.203125 1.34375l-1.703125 0q-0.140625 -0.484375 -0.1875 -1.21875zm0.609375 -3.765625q-0.34375 0.125 -0.75 0.203125q-0.40625 0.078125 -1.34375 0.15625q-1.46875 0.140625 -2.078125 0.34375q-0.59375 0.1875 -0.90625 0.625q-0.3125 0.4375 -0.3125 0.96875q0 0.703125 0.484375 1.15625q0.5 0.453125 1.390625 0.453125q0.84375 0 1.609375 -0.4375q0.765625 -0.4375 1.203125 -1.21875q0.453125 -0.796875 0.703125 -2.25zm3.110077 4.984375l2.0625 -9.859375l1.671875 0l-0.34375 1.625q0.9375 -1.046875 1.671875 -1.4375q0.734375 -0.40625 1.609375 -0.40625q0.90625 0 1.515625 0.5q0.625 0.484375 0.828125 1.34375q0.75 -0.921875 1.578125 -1.375q0.828125 -0.46875 1.75 -0.46875q1.234375 0 1.84375 0.59375q0.625 0.578125 0.625 1.640625q0 0.453125 -0.21875 1.5l-1.328125 6.34375l-1.671875 0l1.359375 -6.515625q0.171875 -0.796875 0.171875 -1.140625q0 -0.484375 -0.3125 -0.75q-0.296875 -0.28125 -0.859375 -0.28125q-0.75 0 -1.53125 0.453125q-0.78125 0.453125 -1.21875 1.1875q-0.421875 0.734375 -0.75 2.265625l-1.0 4.78125l-1.671875 0l1.390625 -6.65625q0.140625 -0.671875 0.140625 -0.953125q0 -0.484375 -0.296875 -0.78125q-0.296875 -0.296875 -0.78125 -0.296875q-0.71875 0 -1.5 0.453125q-0.78125 0.453125 -1.28125 1.265625q-0.484375 0.8125 -0.796875 2.3125l-0.984375 4.65625l-1.671875 0zm22.790802 -3.34375l1.625 0.15625q-0.359375 1.21875 -1.625 2.3125q-1.265625 1.09375 -3.015625 1.09375q-1.09375 0 -2.015625 -0.5q-0.90625 -0.5 -1.390625 -1.46875q-0.46875 -0.96875 -0.46875 -2.203125q0 -1.609375 0.75 -3.125q0.75 -1.515625 1.9375 -2.25q1.1875 -0.75 2.5625 -0.75q1.765625 0 2.8125 1.09375q1.0625 1.09375 1.0625 2.984375q0 0.734375 -0.140625 1.484375l-7.25 0q-0.03125 0.296875 -0.03125 0.53125q0 1.375 0.625 2.109375q0.640625 0.71875 1.5625 0.71875q0.859375 0 1.6875 -0.5625q0.84375 -0.5625 1.3125 -1.625zm-4.890625 -2.453125l5.53125 0q0.015625 -0.25 0.015625 -0.359375q0 -1.265625 -0.640625 -1.9375q-0.625 -0.671875 -1.625 -0.671875q-1.0625 0 -1.953125 0.75q-0.890625 0.734375 -1.328125 2.21875z" fill-rule="nonzero"></path><path fill="#d9d9d9" d="m433.42175 48.53888l129.44879 0l0 52.0l-129.44879 0z" fill-rule="nonzero"></path><path stroke="#999999" stroke-width="2.0" stroke-linejoin="round" stroke-linecap="butt" d="m433.42175 48.53888l129.44879 0l0 52.0l-129.44879 0z" fill-rule="nonzero"></path><path fill="#000000" d="m475.1614 80.70294l1.796875 -8.546875l-1.5 0l0.265625 -1.3125l1.5 0l0.28125 -1.390625q0.234375 -1.046875 0.46875 -1.515625q0.234375 -0.46875 0.765625 -0.765625q0.53125 -0.296875 1.453125 -0.296875q0.640625 0 1.859375 0.265625l-0.3125 1.46875q-0.84375 -0.234375 -1.421875 -0.234375q-0.5 0 -0.75 0.25q-0.25 0.25 -0.4375 1.171875l-0.21875 1.046875l1.859375 0l-0.265625 1.3125l-1.875 0l-1.78125 8.546875l-1.6875 0zm4.948944 0l2.0625 -9.859375l1.484375 0l-0.421875 2.015625q0.765625 -1.140625 1.484375 -1.6875q0.734375 -0.546875 1.5 -0.546875q0.5 0 1.234375 0.359375l-0.6875 1.5625q-0.4375 -0.3125 -0.953125 -0.3125q-0.875 0 -1.8125 0.984375q-0.921875 0.984375 -1.453125 3.53125l-0.828125 3.953125l-1.609375 0zm12.868927 -1.21875q-0.875 0.75 -1.6875 1.09375q-0.8125 0.34375 -1.71875 0.34375q-1.375 0 -2.21875 -0.796875q-0.828125 -0.796875 -0.828125 -2.0625q0 -0.8125 0.375 -1.453125q0.390625 -0.640625 1.0 -1.015625q0.625 -0.390625 1.53125 -0.5625q0.5625 -0.109375 2.140625 -0.171875q1.578125 -0.0625 2.265625 -0.328125q0.203125 -0.6875 0.203125 -1.140625q0 -0.59375 -0.4375 -0.921875q-0.578125 -0.46875 -1.703125 -0.46875q-1.046875 0 -1.734375 0.46875q-0.671875 0.46875 -0.96875 1.328125l-1.703125 -0.140625q0.515625 -1.46875 1.640625 -2.25q1.140625 -0.78125 2.859375 -0.78125q1.828125 0 2.890625 0.875q0.8125 0.65625 0.8125 1.6875q0 0.796875 -0.234375 1.828125l-0.546875 2.453125q-0.25 1.171875 -0.25 1.890625q0 0.46875 0.203125 1.34375l-1.703125 0q-0.140625 -0.484375 -0.1875 -1.21875zm0.609375 -3.765625q-0.34375 0.125 -0.75 0.203125q-0.40625 0.078125 -1.34375 0.15625q-1.46875 0.140625 -2.078125 0.34375q-0.59375 0.1875 -0.90625 0.625q-0.3125 0.4375 -0.3125 0.96875q0 0.703125 0.484375 1.15625q0.5 0.453125 1.390625 0.453125q0.84375 0 1.609375 -0.4375q0.765625 -0.4375 1.203125 -1.21875q0.453125 -0.796875 0.703125 -2.25zm3.110077 4.984375l2.0625 -9.859375l1.671875 0l-0.34375 1.625q0.9375 -1.046875 1.671875 -1.4375q0.734375 -0.40625 1.609375 -0.40625q0.90625 0 1.515625 0.5q0.625 0.484375 0.828125 1.34375q0.75 -0.921875 1.578125 -1.375q0.828125 -0.46875 1.75 -0.46875q1.234375 0 1.84375 0.59375q0.625 0.578125 0.625 1.640625q0 0.453125 -0.21875 1.5l-1.328125 6.34375l-1.671875 0l1.359375 -6.515625q0.171875 -0.796875 0.171875 -1.140625q0 -0.484375 -0.3125 -0.75q-0.296875 -0.28125 -0.859375 -0.28125q-0.75 0 -1.53125 0.453125q-0.78125 0.453125 -1.21875 1.1875q-0.421875 0.734375 -0.75 2.265625l-1.0 4.78125l-1.671875 0l1.390625 -6.65625q0.140625 -0.671875 0.140625 -0.953125q0 -0.484375 -0.296875 -0.78125q-0.296875 -0.296875 -0.78125 -0.296875q-0.71875 0 -1.5 0.453125q-0.78125 0.453125 -1.28125 1.265625q-0.484375 0.8125 -0.796875 2.3125l-0.984375 4.65625l-1.671875 0zm22.790833 -3.34375l1.625 0.15625q-0.359375 1.21875 -1.625 2.3125q-1.265625 1.09375 -3.015625 1.09375q-1.09375 0 -2.015625 -0.5q-0.90625 -0.5 -1.390625 -1.46875q-0.46875 -0.96875 -0.46875 -2.203125q0 -1.609375 0.75 -3.125q0.75 -1.515625 1.9375 -2.25q1.1875 -0.75 2.5625 -0.75q1.765625 0 2.8125 1.09375q1.0625 1.09375 1.0625 2.984375q0 0.734375 -0.140625 1.484375l-7.25 0q-0.03125 0.296875 -0.03125 0.53125q0 1.375 0.625 2.109375q0.640625 0.71875 1.5625 0.71875q0.859375 0 1.6875 -0.5625q0.84375 -0.5625 1.3125 -1.625zm-4.890625 -2.453125l5.53125 0q0.015625 -0.25 0.015625 -0.359375q0 -1.265625 -0.640625 -1.9375q-0.625 -0.671875 -1.625 -0.671875q-1.0625 0 -1.953125 0.75q-0.890625 0.734375 -1.328125 2.21875z" fill-rule="nonzero"></path><path fill="#000000" d="m128.7343 26.967213l-1.6718674 0l0 -10.640625q-0.59375 0.578125 -1.578125 1.15625q-0.984375 0.5625 -1.765625 0.859375l0 -1.625q1.40625 -0.65625 2.453125 -1.59375q1.046875 -0.9375 1.484375 -1.8125l1.0781174 0l0 13.65625zm12.750717 -10.265625l-1.65625 0.125q-0.21875 -0.984375 -0.640625 -1.421875q-0.671875 -0.71875 -1.65625 -0.71875q-0.8125 0 -1.40625 0.4375q-0.796875 0.578125 -1.25 1.6875q-0.453125 1.09375 -0.46875 3.140625q0.609375 -0.921875 1.46875 -1.359375q0.875 -0.453125 1.828125 -0.453125q1.671875 0 2.84375 1.234375q1.171875 1.234375 1.171875 3.171875q0 1.28125 -0.546875 2.390625q-0.546875 1.09375 -1.515625 1.6875q-0.96875 0.578125 -2.1875 0.578125q-2.09375 0 -3.40625 -1.53125q-1.3125 -1.546875 -1.3125 -5.0625q0 -3.953125 1.453125 -5.734375q1.265625 -1.5625 3.421875 -1.5625q1.609375 0 2.625 0.90625q1.03125 0.890625 1.234375 2.484375zm-6.8125 5.859375q0 0.859375 0.359375 1.65625q0.375 0.78125 1.03125 1.203125q0.65625 0.40625 1.375 0.40625q1.0625 0 1.8125 -0.84375q0.765625 -0.859375 0.765625 -2.328125q0 -1.40625 -0.75 -2.21875q-0.75 -0.8125 -1.890625 -0.8125q-1.125 0 -1.921875 0.8125q-0.78125 0.8125 -0.78125 2.125zm8.985092 4.40625l0 -9.859375l1.5 0l0 1.390625q0.453125 -0.71875 1.21875 -1.15625q0.78125 -0.453125 1.765625 -0.453125q1.09375 0 1.796875 0.453125q0.703125 0.453125 0.984375 1.28125q1.171875 -1.734375 3.046875 -1.734375q1.46875 0 2.25 0.8125q0.796875 0.8125 0.796875 2.5l0 6.765625l-1.671875 0l0 -6.203125q0 -1.0 -0.15625 -1.4375q-0.15625 -0.453125 -0.59375 -0.71875q-0.421875 -0.265625 -1.0 -0.265625q-1.03125 0 -1.71875 0.6875q-0.6875 0.6875 -0.6875 2.21875l0 5.71875l-1.671875 0l0 -6.40625q0 -1.109375 -0.40625 -1.65625q-0.40625 -0.5625 -1.34375 -0.5625q-0.703125 0 -1.3125 0.375q-0.59375 0.359375 -0.859375 1.078125q-0.265625 0.71875 -0.265625 2.0625l0 5.109375l-1.671875 0zm14.868927 -2.9375l1.65625 -0.265625q0.140625 1.0 0.765625 1.53125q0.640625 0.515625 1.78125 0.515625q1.15625 0 1.703125 -0.46875q0.5625 -0.46875 0.5625 -1.09375q0 -0.5625 -0.484375 -0.890625q-0.34375 -0.21875 -1.703125 -0.5625q-1.84375 -0.46875 -2.5625 -0.796875q-0.703125 -0.34375 -1.078125 -0.9375q-0.359375 -0.609375 -0.359375 -1.328125q0 -0.65625 0.296875 -1.21875q0.3125 -0.5625 0.828125 -0.9375q0.390625 -0.28125 1.0625 -0.484375q0.671875 -0.203125 1.4375 -0.203125q1.171875 0 2.046875 0.34375q0.875 0.328125 1.28125 0.90625q0.421875 0.5625 0.578125 1.515625l-1.625 0.21875q-0.109375 -0.75 -0.65625 -1.171875q-0.53125 -0.4375 -1.5 -0.4375q-1.15625 0 -1.640625 0.390625q-0.484375 0.375 -0.484375 0.875q0 0.328125 0.203125 0.59375q0.203125 0.265625 0.640625 0.4375q0.25 0.09375 1.46875 0.4375q1.765625 0.46875 2.46875 0.765625q0.703125 0.296875 1.09375 0.875q0.40625 0.578125 0.40625 1.4375q0 0.828125 -0.484375 1.578125q-0.484375 0.734375 -1.40625 1.140625q-0.921875 0.390625 -2.078125 0.390625q-1.921875 0 -2.9375 -0.796875q-1.0 -0.796875 -1.28125 -2.359375z" fill-rule="nonzero"></path><path fill="#000000" d="m250.09914 26.967213l-1.671875 0l0 -10.640625q-0.59375 0.578125 -1.578125 1.15625q-0.984375 0.5625 -1.765625 0.859375l0 -1.625q1.40625 -0.65625 2.453125 -1.59375q1.046875 -0.9375 1.484375 -1.8125l1.078125 0l0 13.65625zm12.750717 -10.265625l-1.65625 0.125q-0.21875 -0.984375 -0.640625 -1.421875q-0.671875 -0.71875 -1.65625 -0.71875q-0.8125 0 -1.40625 0.4375q-0.796875 0.578125 -1.25 1.6875q-0.453125 1.09375 -0.46875 3.140625q0.609375 -0.921875 1.46875 -1.359375q0.875 -0.453125 1.828125 -0.453125q1.671875 0 2.84375 1.234375q1.171875 1.234375 1.171875 3.171875q0 1.28125 -0.546875 2.390625q-0.546875 1.09375 -1.515625 1.6875q-0.96875 0.578125 -2.1875 0.578125q-2.09375 0 -3.40625 -1.53125q-1.3125 -1.546875 -1.3125 -5.0625q0 -3.953125 1.453125 -5.734375q1.265625 -1.5625 3.421875 -1.5625q1.609375 0 2.625 0.90625q1.03125 0.890625 1.234375 2.484375zm-6.8125 5.859375q0 0.859375 0.359375 1.65625q0.375 0.78125 1.03125 1.203125q0.65625 0.40625 1.375 0.40625q1.0625 0 1.8125 -0.84375q0.765625 -0.859375 0.765625 -2.328125q0 -1.40625 -0.75 -2.21875q-0.75 -0.8125 -1.890625 -0.8125q-1.125 0 -1.921875 0.8125q-0.78125 0.8125 -0.78125 2.125zm8.985077 4.40625l0 -9.859375l1.5 0l0 1.390625q0.453125 -0.71875 1.21875 -1.15625q0.78125 -0.453125 1.765625 -0.453125q1.09375 0 1.796875 0.453125q0.703125 0.453125 0.984375 1.28125q1.171875 -1.734375 3.046875 -1.734375q1.46875 0 2.25 0.8125q0.796875 0.8125 0.796875 2.5l0 6.765625l-1.671875 0l0 -6.203125q0 -1.0 -0.15625 -1.4375q-0.15625 -0.453125 -0.59375 -0.71875q-0.421875 -0.265625 -1.0 -0.265625q-1.03125 0 -1.71875 0.6875q-0.6875 0.6875 -0.6875 2.21875l0 5.71875l-1.671875 0l0 -6.40625q0 -1.109375 -0.40625 -1.65625q-0.40625 -0.5625 -1.34375 -0.5625q-0.703125 0 -1.3125 0.375q-0.59375 0.359375 -0.859375 1.078125q-0.265625 0.71875 -0.265625 2.0625l0 5.109375l-1.671875 0zm14.868927 -2.9375l1.65625 -0.265625q0.140625 1.0 0.765625 1.53125q0.640625 0.515625 1.78125 0.515625q1.15625 0 1.703125 -0.46875q0.5625 -0.46875 0.5625 -1.09375q0 -0.5625 -0.484375 -0.890625q-0.34375 -0.21875 -1.703125 -0.5625q-1.84375 -0.46875 -2.5625 -0.796875q-0.703125 -0.34375 -1.078125 -0.9375q-0.359375 -0.609375 -0.359375 -1.328125q0 -0.65625 0.296875 -1.21875q0.3125 -0.5625 0.828125 -0.9375q0.390625 -0.28125 1.0625 -0.484375q0.671875 -0.203125 1.4375 -0.203125q1.171875 0 2.046875 0.34375q0.875 0.328125 1.28125 0.90625q0.421875 0.5625 0.578125 1.515625l-1.625 0.21875q-0.109375 -0.75 -0.65625 -1.171875q-0.53125 -0.4375 -1.5 -0.4375q-1.15625 0 -1.640625 0.390625q-0.484375 0.375 -0.484375 0.875q0 0.328125 0.203125 0.59375q0.203125 0.265625 0.640625 0.4375q0.25 0.09375 1.46875 0.4375q1.765625 0.46875 2.46875 0.765625q0.703125 0.296875 1.09375 0.875q0.40625 0.578125 0.40625 1.4375q0 0.828125 -0.484375 1.578125q-0.484375 0.734375 -1.40625 1.140625q-0.921875 0.390625 -2.078125 0.390625q-1.921875 0 -2.9375 -0.796875q-1.0 -0.796875 -1.28125 -2.359375z" fill-rule="nonzero"></path><path fill="#000000" d="m379.54794 26.967213l-1.671875 0l0 -10.640625q-0.59375 0.578125 -1.578125 1.15625q-0.984375 0.5625 -1.765625 0.859375l0 -1.625q1.40625 -0.65625 2.453125 -1.59375q1.046875 -0.9375 1.484375 -1.8125l1.078125 0l0 13.65625zm12.750732 -10.265625l-1.65625 0.125q-0.21875 -0.984375 -0.640625 -1.421875q-0.671875 -0.71875 -1.65625 -0.71875q-0.8125 0 -1.40625 0.4375q-0.796875 0.578125 -1.25 1.6875q-0.453125 1.09375 -0.46875 3.140625q0.609375 -0.921875 1.46875 -1.359375q0.875 -0.453125 1.828125 -0.453125q1.671875 0 2.84375 1.234375q1.171875 1.234375 1.171875 3.171875q0 1.28125 -0.546875 2.390625q-0.546875 1.09375 -1.515625 1.6875q-0.96875 0.578125 -2.1875 0.578125q-2.09375 0 -3.40625 -1.53125q-1.3125 -1.546875 -1.3125 -5.0625q0 -3.953125 1.453125 -5.734375q1.265625 -1.5625 3.421875 -1.5625q1.609375 0 2.625 0.90625q1.03125 0.890625 1.234375 2.484375zm-6.8125 5.859375q0 0.859375 0.359375 1.65625q0.375 0.78125 1.03125 1.203125q0.65625 0.40625 1.375 0.40625q1.0625 0 1.8125 -0.84375q0.765625 -0.859375 0.765625 -2.328125q0 -1.40625 -0.75 -2.21875q-0.75 -0.8125 -1.890625 -0.8125q-1.125 0 -1.921875 0.8125q-0.78125 0.8125 -0.78125 2.125zm8.985077 4.40625l0 -9.859375l1.5 0l0 1.390625q0.453125 -0.71875 1.21875 -1.15625q0.78125 -0.453125 1.765625 -0.453125q1.09375 0 1.796875 0.453125q0.703125 0.453125 0.984375 1.28125q1.171875 -1.734375 3.046875 -1.734375q1.46875 0 2.25 0.8125q0.796875 0.8125 0.796875 2.5l0 6.765625l-1.671875 0l0 -6.203125q0 -1.0 -0.15625 -1.4375q-0.15625 -0.453125 -0.59375 -0.71875q-0.421875 -0.265625 -1.0 -0.265625q-1.03125 0 -1.71875 0.6875q-0.6875 0.6875 -0.6875 2.21875l0 5.71875l-1.671875 0l0 -6.40625q0 -1.109375 -0.40625 -1.65625q-0.40625 -0.5625 -1.34375 -0.5625q-0.703125 0 -1.3125 0.375q-0.59375 0.359375 -0.859375 1.078125q-0.265625 0.71875 -0.265625 2.0625l0 5.109375l-1.671875 0zm14.868927 -2.9375l1.65625 -0.265625q0.140625 1.0 0.765625 1.53125q0.640625 0.515625 1.78125 0.515625q1.15625 0 1.703125 -0.46875q0.5625 -0.46875 0.5625 -1.09375q0 -0.5625 -0.484375 -0.890625q-0.34375 -0.21875 -1.703125 -0.5625q-1.84375 -0.46875 -2.5625 -0.796875q-0.703125 -0.34375 -1.078125 -0.9375q-0.359375 -0.609375 -0.359375 -1.328125q0 -0.65625 0.296875 -1.21875q0.3125 -0.5625 0.828125 -0.9375q0.390625 -0.28125 1.0625 -0.484375q0.671875 -0.203125 1.4375 -0.203125q1.171875 0 2.046875 0.34375q0.875 0.328125 1.28125 0.90625q0.421875 0.5625 0.578125 1.515625l-1.625 0.21875q-0.109375 -0.75 -0.65625 -1.171875q-0.53125 -0.4375 -1.5 -0.4375q-1.15625 0 -1.640625 0.390625q-0.484375 0.375 -0.484375 0.875q0 0.328125 0.203125 0.59375q0.203125 0.265625 0.640625 0.4375q0.25 0.09375 1.46875 0.4375q1.765625 0.46875 2.46875 0.765625q0.703125 0.296875 1.09375 0.875q0.40625 0.578125 0.40625 1.4375q0 0.828125 -0.484375 1.578125q-0.484375 0.734375 -1.40625 1.140625q-0.921875 0.390625 -2.078125 0.390625q-1.921875 0 -2.9375 -0.796875q-1.0 -0.796875 -1.28125 -2.359375z" fill-rule="nonzero"></path><path fill="#000000" d="m508.99677 26.967213l-1.671875 0l0 -10.640625q-0.59375 0.578125 -1.578125 1.15625q-0.984375 0.5625 -1.765625 0.859375l0 -1.625q1.40625 -0.65625 2.453125 -1.59375q1.046875 -0.9375 1.484375 -1.8125l1.078125 0l0 13.65625zm12.750732 -10.265625l-1.65625 0.125q-0.21875 -0.984375 -0.640625 -1.421875q-0.671875 -0.71875 -1.65625 -0.71875q-0.8125 0 -1.40625 0.4375q-0.796875 0.578125 -1.25 1.6875q-0.453125 1.09375 -0.46875 3.140625q0.609375 -0.921875 1.46875 -1.359375q0.875 -0.453125 1.828125 -0.453125q1.671875 0 2.84375 1.234375q1.171875 1.234375 1.171875 3.171875q0 1.28125 -0.546875 2.390625q-0.546875 1.09375 -1.515625 1.6875q-0.96875 0.578125 -2.1875 0.578125q-2.09375 0 -3.40625 -1.53125q-1.3125 -1.546875 -1.3125 -5.0625q0 -3.953125 1.453125 -5.734375q1.265625 -1.5625 3.421875 -1.5625q1.609375 0 2.625 0.90625q1.03125 0.890625 1.234375 2.484375zm-6.8125 5.859375q0 0.859375 0.359375 1.65625q0.375 0.78125 1.03125 1.203125q0.65625 0.40625 1.375 0.40625q1.0625 0 1.8125 -0.84375q0.765625 -0.859375 0.765625 -2.328125q0 -1.40625 -0.75 -2.21875q-0.75 -0.8125 -1.890625 -0.8125q-1.125 0 -1.921875 0.8125q-0.78125 0.8125 -0.78125 2.125zm8.985107 4.40625l0 -9.859375l1.5 0l0 1.390625q0.453125 -0.71875 1.21875 -1.15625q0.78125 -0.453125 1.765625 -0.453125q1.09375 0 1.796875 0.453125q0.703125 0.453125 0.984375 1.28125q1.171875 -1.734375 3.046875 -1.734375q1.46875 0 2.25 0.8125q0.796875 0.8125 0.796875 2.5l0 6.765625l-1.671875 0l0 -6.203125q0 -1.0 -0.15625 -1.4375q-0.15625 -0.453125 -0.59375 -0.71875q-0.421875 -0.265625 -1.0 -0.265625q-1.03125 0 -1.71875 0.6875q-0.6875 0.6875 -0.6875 2.21875l0 5.71875l-1.671875 0l0 -6.40625q0 -1.109375 -0.40625 -1.65625q-0.40625 -0.5625 -1.34375 -0.5625q-0.703125 0 -1.3125 0.375q-0.59375 0.359375 -0.859375 1.078125q-0.265625 0.71875 -0.265625 2.0625l0 5.109375l-1.671875 0zm14.8688965 -2.9375l1.65625 -0.265625q0.140625 1.0 0.765625 1.53125q0.640625 0.515625 1.78125 0.515625q1.15625 0 1.703125 -0.46875q0.5625 -0.46875 0.5625 -1.09375q0 -0.5625 -0.484375 -0.890625q-0.34375 -0.21875 -1.703125 -0.5625q-1.84375 -0.46875 -2.5625 -0.796875q-0.703125 -0.34375 -1.078125 -0.9375q-0.359375 -0.609375 -0.359375 -1.328125q0 -0.65625 0.296875 -1.21875q0.3125 -0.5625 0.828125 -0.9375q0.390625 -0.28125 1.0625 -0.484375q0.671875 -0.203125 1.4375 -0.203125q1.171875 0 2.046875 0.34375q0.875 0.328125 1.28125 0.90625q0.421875 0.5625 0.578125 1.515625l-1.625 0.21875q-0.109375 -0.75 -0.65625 -1.171875q-0.53125 -0.4375 -1.5 -0.4375q-1.15625 0 -1.640625 0.390625q-0.484375 0.375 -0.484375 0.875q0 0.328125 0.203125 0.59375q0.203125 0.265625 0.640625 0.4375q0.25 0.09375 1.46875 0.4375q1.765625 0.46875 2.46875 0.765625q0.703125 0.296875 1.09375 0.875q0.40625 0.578125 0.40625 1.4375q0 0.828125 -0.484375 1.578125q-0.484375 0.734375 -1.40625 1.140625q-0.921875 0.390625 -2.078125 0.390625q-1.921875 0 -2.9375 -0.796875q-1.0 -0.796875 -1.28125 -2.359375z" fill-rule="nonzero"></path><path stroke="#999999" stroke-width="2.0" stroke-linejoin="round" stroke-linecap="butt" d="m175.66846 100.54655l-1.1653595 -98.23622" fill-rule="nonzero"></path><path stroke="#999999" stroke-width="2.0" stroke-linejoin="round" stroke-linecap="butt" d="m305.13828 100.54655l-1.1653442 -98.23622" fill-rule="nonzero"></path><path stroke="#999999" stroke-width="2.0" stroke-linejoin="round" stroke-linecap="butt" d="m434.5871 100.54655l-1.1653442 -98.23622" fill-rule="nonzero"></path><path stroke="#999999" stroke-width="2.0" stroke-linejoin="round" stroke-linecap="butt" d="m562.87054 100.54655l-1.1653442 -98.23622" fill-rule="nonzero"></path><path fill="#8e7cc3" d="m171.63573 206.83604l171.62206 0l0 35.811035l-171.62206 0z" fill-rule="nonzero"></path><path stroke="#d9d9d9" stroke-width="2.0" stroke-linejoin="round" stroke-linecap="butt" d="m171.63573 206.83604l171.62206 0l0 35.811035l-171.62206 0z" fill-rule="nonzero"></path><path fill="#000000" d="m230.83022 230.90562l0 -13.59375l1.796875 0l0 11.984375l6.703125 0l0 1.609375l-8.5 0zm16.672592 -1.21875q-0.9375 0.796875 -1.796875 1.125q-0.859375 0.3125 -1.84375 0.3125q-1.609375 0 -2.484375 -0.78125q-0.875 -0.796875 -0.875 -2.03125q0 -0.734375 0.328125 -1.328125q0.328125 -0.59375 0.859375 -0.953125q0.53125 -0.359375 1.203125 -0.546875q0.5 -0.140625 1.484375 -0.25q2.03125 -0.25 2.984375 -0.578125q0 -0.34375 0 -0.4375q0 -1.015625 -0.46875 -1.4375q-0.640625 -0.5625 -1.90625 -0.5625q-1.171875 0 -1.734375 0.40625q-0.5625 0.40625 -0.828125 1.46875l-1.640625 -0.234375q0.234375 -1.046875 0.734375 -1.6875q0.515625 -0.640625 1.46875 -0.984375q0.96875 -0.359375 2.25 -0.359375q1.265625 0 2.046875 0.296875q0.78125 0.296875 1.15625 0.75q0.375 0.453125 0.515625 1.140625q0.09375 0.421875 0.09375 1.53125l0 2.234375q0 2.328125 0.09375 2.953125q0.109375 0.609375 0.4375 1.171875l-1.75 0q-0.265625 -0.515625 -0.328125 -1.21875zm-0.140625 -3.71875q-0.90625 0.359375 -2.734375 0.625q-1.03125 0.140625 -1.453125 0.328125q-0.421875 0.1875 -0.65625 0.546875q-0.234375 0.359375 -0.234375 0.796875q0 0.671875 0.5 1.125q0.515625 0.4375 1.484375 0.4375q0.96875 0 1.71875 -0.421875q0.75 -0.4375 1.109375 -1.15625q0.265625 -0.578125 0.265625 -1.671875l0 -0.609375zm4.000717 8.734375l-0.171875 -1.5625q0.546875 0.140625 0.953125 0.140625q0.546875 0 0.875 -0.1875q0.34375 -0.1875 0.5625 -0.515625q0.15625 -0.25 0.5 -1.25q0.046875 -0.140625 0.15625 -0.40625l-3.734375 -9.875l1.796875 0l2.046875 5.71875q0.40625 1.078125 0.71875 2.28125q0.28125 -1.15625 0.6875 -2.25l2.0937653 -5.75l1.671875 0l-3.7500153 10.03125q-0.59375 1.625 -0.9375 2.234375q-0.4375 0.828125 -1.015625 1.203125q-0.578125 0.390625 -1.375 0.390625q-0.484375 0 -1.078125 -0.203125zm8.781265 -8.71875q0 -2.734375 1.53125 -4.0625q1.265625 -1.09375 3.09375 -1.09375q2.03125 0 3.3125 1.34375q1.296875 1.328125 1.296875 3.671875q0 1.90625 -0.578125 3.0q-0.5625 1.078125 -1.65625 1.6875q-1.078125 0.59375 -2.375 0.59375q-2.0625 0 -3.34375 -1.328125q-1.28125 -1.328125 -1.28125 -3.8125zm1.71875 0q0 1.890625 0.828125 2.828125q0.828125 0.9375 2.078125 0.9375q1.25 0 2.0625 -0.9375q0.828125 -0.953125 0.828125 -2.890625q0 -1.828125 -0.828125 -2.765625q-0.828125 -0.9375 -2.0625 -0.9375q-1.25 0 -2.078125 0.9375q-0.828125 0.9375 -0.828125 2.828125zm15.735077 4.921875l0 -1.453125q-1.140625 1.671875 -3.125 1.671875q-0.859375 0 -1.625 -0.328125q-0.75 -0.34375 -1.125 -0.84375q-0.359375 -0.5 -0.515625 -1.234375q-0.09375 -0.5 -0.09375 -1.5625l0 -6.109375l1.671875 0l0 5.46875q0 1.3125 0.09375 1.765625q0.15625 0.65625 0.671875 1.03125q0.515625 0.375 1.265625 0.375q0.75 0 1.40625 -0.375q0.65625 -0.390625 0.921875 -1.046875q0.28125 -0.671875 0.28125 -1.9375l0 -5.28125l1.671875 0l0 9.859375l-1.5 0zm7.5788574 -1.5l0.234375 1.484375q-0.703125 0.140625 -1.265625 0.140625q-0.90625 0 -1.40625 -0.28125q-0.5 -0.296875 -0.703125 -0.75q-0.203125 -0.46875 -0.203125 -1.984375l0 -5.65625l-1.234375 0l0 -1.3125l1.234375 0l0 -2.4375l1.65625 -1.0l0 3.4375l1.6875 0l0 1.3125l-1.6875 0l0 5.75q0 0.71875 0.078125 0.921875q0.09375 0.203125 0.296875 0.328125q0.203125 0.125 0.578125 0.125q0.265625 0 0.734375 -0.078125z" fill-rule="nonzero"></path><path fill="#93c47d" d="m343.27145 206.83604l171.62204 0l0 35.811035l-171.62204 0z" fill-rule="nonzero"></path><path stroke="#d9d9d9" stroke-width="2.0" stroke-linejoin="round" stroke-linecap="butt" d="m343.27145 206.83604l171.62204 0l0 35.811035l-171.62204 0z" fill-rule="nonzero"></path><path fill="#000000" d="m396.84152 230.90562l0 -13.59375l5.125 0q1.359375 0 2.078125 0.125q1.0 0.171875 1.671875 0.640625q0.671875 0.46875 1.078125 1.3125q0.421875 0.84375 0.421875 1.84375q0 1.734375 -1.109375 2.9375q-1.09375 1.203125 -3.984375 1.203125l-3.484375 0l0 5.53125l-1.796875 0zm1.796875 -7.140625l3.515625 0q1.75 0 2.46875 -0.640625q0.734375 -0.65625 0.734375 -1.828125q0 -0.859375 -0.4375 -1.46875q-0.421875 -0.609375 -1.125 -0.796875q-0.453125 -0.125 -1.671875 -0.125l-3.484375 0l0 4.859375zm16.865448 5.921875q-0.9375 0.796875 -1.796875 1.125q-0.859375 0.3125 -1.84375 0.3125q-1.609375 0 -2.484375 -0.78125q-0.875 -0.796875 -0.875 -2.03125q0 -0.734375 0.328125 -1.328125q0.328125 -0.59375 0.859375 -0.953125q0.53125 -0.359375 1.203125 -0.546875q0.5 -0.140625 1.484375 -0.25q2.03125 -0.25 2.984375 -0.578125q0 -0.34375 0 -0.4375q0 -1.015625 -0.46875 -1.4375q-0.640625 -0.5625 -1.90625 -0.5625q-1.171875 0 -1.734375 0.40625q-0.5625 0.40625 -0.828125 1.46875l-1.640625 -0.234375q0.234375 -1.046875 0.734375 -1.6875q0.515625 -0.640625 1.46875 -0.984375q0.96875 -0.359375 2.25 -0.359375q1.265625 0 2.046875 0.296875q0.78125 0.296875 1.15625 0.75q0.375 0.453125 0.515625 1.140625q0.09375 0.421875 0.09375 1.53125l0 2.234375q0 2.328125 0.09375 2.953125q0.109375 0.609375 0.4375 1.171875l-1.75 0q-0.265625 -0.515625 -0.328125 -1.21875zm-0.140625 -3.71875q-0.90625 0.359375 -2.734375 0.625q-1.03125 0.140625 -1.453125 0.328125q-0.421875 0.1875 -0.65625 0.546875q-0.234375 0.359375 -0.234375 0.796875q0 0.671875 0.5 1.125q0.515625 0.4375 1.484375 0.4375q0.96875 0 1.71875 -0.421875q0.75 -0.4375 1.109375 -1.15625q0.265625 -0.578125 0.265625 -1.671875l0 -0.609375zm4.0944824 -6.75l0 -1.90625l1.671875 0l0 1.90625l-1.671875 0zm0 11.6875l0 -9.859375l1.671875 0l0 9.859375l-1.671875 0zm4.129181 0l0 -9.859375l1.5 0l0 1.40625q1.09375 -1.625 3.140625 -1.625q0.890625 0 1.640625 0.328125q0.75 0.3125 1.109375 0.84375q0.375 0.515625 0.53125 1.21875q0.09375 0.46875 0.09375 1.625l0 6.0625l-1.671875 0l0 -6.0q0 -1.015625 -0.203125 -1.515625q-0.1875 -0.515625 -0.6875 -0.8125q-0.5 -0.296875 -1.171875 -0.296875q-1.0625 0 -1.84375 0.671875q-0.765625 0.671875 -0.765625 2.578125l0 5.375l-1.671875 0zm14.031982 -1.5l0.234375 1.484375q-0.703125 0.140625 -1.265625 0.140625q-0.90625 0 -1.40625 -0.28125q-0.5 -0.296875 -0.703125 -0.75q-0.203125 -0.46875 -0.203125 -1.984375l0 -5.65625l-1.234375 0l0 -1.3125l1.234375 0l0 -2.4375l1.65625 -1.0l0 3.4375l1.6875 0l0 1.3125l-1.6875 0l0 5.75q0 0.71875 0.078125 0.921875q0.09375 0.203125 0.296875 0.328125q0.203125 0.125 0.578125 0.125q0.265625 0 0.734375 -0.078125zm1.5426636 -10.1875l0 -1.90625l1.671875 0l0 1.90625l-1.671875 0zm0 11.6875l0 -9.859375l1.671875 0l0 9.859375l-1.671875 0zm4.1292114 0l0 -9.859375l1.5 0l0 1.40625q1.09375 -1.625 3.140625 -1.625q0.890625 0 1.640625 0.328125q0.75 0.3125 1.109375 0.84375q0.375 0.515625 0.53125 1.21875q0.09375 0.46875 0.09375 1.625l0 6.0625l-1.671875 0l0 -6.0q0 -1.015625 -0.203125 -1.515625q-0.1875 -0.515625 -0.6875 -0.8125q-0.5 -0.296875 -1.171875 -0.296875q-1.0625 0 -1.84375 0.671875q-0.765625 0.671875 -0.765625 2.578125l0 5.375l-1.671875 0zm10.078827 0.8125l1.609375 0.25q0.109375 0.75 0.578125 1.09375q0.609375 0.453125 1.6875 0.453125q1.171875 0 1.796875 -0.46875q0.625 -0.453125 0.859375 -1.28125q0.125 -0.515625 0.109375 -2.15625q-1.09375 1.296875 -2.71875 1.296875q-2.03125 0 -3.15625 -1.46875q-1.109375 -1.46875 -1.109375 -3.515625q0 -1.40625 0.515625 -2.59375q0.515625 -1.203125 1.484375 -1.84375q0.96875 -0.65625 2.265625 -0.65625q1.75 0 2.875 1.40625l0 -1.1875l1.546875 0l0 8.515625q0 2.3125 -0.46875 3.265625q-0.46875 0.96875 -1.484375 1.515625q-1.015625 0.5625 -2.5 0.5625q-1.765625 0 -2.859375 -0.796875q-1.078125 -0.796875 -1.03125 -2.390625zm1.375 -5.921875q0 1.953125 0.765625 2.84375q0.78125 0.890625 1.9375 0.890625q1.140625 0 1.921875 -0.890625q0.78125 -0.890625 0.78125 -2.78125q0 -1.8125 -0.8125 -2.71875q-0.796875 -0.921875 -1.921875 -0.921875q-1.109375 0 -1.890625 0.90625q-0.78125 0.890625 -0.78125 2.671875z" fill-rule="nonzero"></path><path fill="#45818e" d="m514.90717 206.83604l171.62207 0l0 35.811035l-171.62207 0z" fill-rule="nonzero"></path><path stroke="#d9d9d9" stroke-width="2.0" stroke-linejoin="round" stroke-linecap="butt" d="m514.90717 206.83604l171.62207 0l0 35.811035l-171.62207 0z" fill-rule="nonzero"></path><path fill="#000000" d="m534.7506 230.90562l0 -13.59375l2.71875 0l3.21875 9.625q0.4375 1.34375 0.640625 2.015625q0.234375 -0.75 0.734375 -2.1875l3.25 -9.453125l2.421875 0l0 13.59375l-1.734375 0l0 -11.390625l-3.953125 11.390625l-1.625 0l-3.9375 -11.578125l0 11.578125l-1.734375 0zm15.4001465 -11.6875l0 -1.90625l1.671875 0l0 1.90625l-1.671875 0zm0 11.6875l0 -9.859375l1.671875 0l0 9.859375l-1.671875 0zm3.4573364 -2.9375l1.65625 -0.265625q0.140625 1.0 0.765625 1.53125q0.640625 0.515625 1.78125 0.515625q1.15625 0 1.703125 -0.46875q0.5625 -0.46875 0.5625 -1.09375q0 -0.5625 -0.484375 -0.890625q-0.34375 -0.21875 -1.703125 -0.5625q-1.84375 -0.46875 -2.5625 -0.796875q-0.703125 -0.34375 -1.078125 -0.9375q-0.359375 -0.609375 -0.359375 -1.328125q0 -0.65625 0.296875 -1.21875q0.3125 -0.5625 0.828125 -0.9375q0.390625 -0.28125 1.0625 -0.484375q0.671875 -0.203125 1.4375 -0.203125q1.171875 0 2.046875 0.34375q0.875 0.328125 1.28125 0.90625q0.421875 0.5625 0.578125 1.515625l-1.625 0.21875q-0.109375 -0.75 -0.65625 -1.171875q-0.53125 -0.4375 -1.5 -0.4375q-1.15625 0 -1.640625 0.390625q-0.484375 0.375 -0.484375 0.875q0 0.328125 0.203125 0.59375q0.203125 0.265625 0.640625 0.4375q0.25 0.09375 1.46875 0.4375q1.765625 0.46875 2.46875 0.765625q0.703125 0.296875 1.09375 0.875q0.40625 0.578125 0.40625 1.4375q0 0.828125 -0.484375 1.578125q-0.484375 0.734375 -1.40625 1.140625q-0.921875 0.390625 -2.078125 0.390625q-1.921875 0 -2.9375 -0.796875q-1.0 -0.796875 -1.28125 -2.359375zm16.4375 -0.671875l1.640625 0.21875q-0.265625 1.6875 -1.375 2.65625q-1.109375 0.953125 -2.734375 0.953125q-2.015625 0 -3.25 -1.3125q-1.21875 -1.328125 -1.21875 -3.796875q0 -1.59375 0.515625 -2.78125q0.53125 -1.203125 1.609375 -1.796875q1.09375 -0.609375 2.359375 -0.609375q1.609375 0 2.625 0.8125q1.015625 0.8125 1.3125 2.3125l-1.625 0.25q-0.234375 -1.0 -0.828125 -1.5q-0.59375 -0.5 -1.421875 -0.5q-1.265625 0 -2.0625 0.90625q-0.78125 0.90625 -0.78125 2.859375q0 1.984375 0.765625 2.890625q0.765625 0.890625 1.984375 0.890625q0.984375 0 1.640625 -0.59375q0.65625 -0.609375 0.84375 -1.859375zm8.214539 3.609375l0 -13.59375l5.109375 0q1.546875 0 2.484375 0.40625q0.953125 0.40625 1.484375 1.265625q0.53125 0.859375 0.53125 1.796875q0 0.875 -0.46875 1.65625q-0.46875 0.765625 -1.4375 1.234375q1.234375 0.359375 1.890625 1.234375q0.671875 0.875 0.671875 2.0625q0 0.953125 -0.40625 1.78125q-0.390625 0.8125 -0.984375 1.265625q-0.59375 0.4375 -1.5 0.671875q-0.890625 0.21875 -2.1875 0.21875l-5.1875 0zm1.796875 -7.890625l2.9375 0q1.203125 0 1.71875 -0.15625q0.6875 -0.203125 1.03125 -0.671875q0.359375 -0.46875 0.359375 -1.1875q0 -0.671875 -0.328125 -1.1875q-0.328125 -0.515625 -0.9375 -0.703125q-0.59375 -0.203125 -2.0625 -0.203125l-2.71875 0l0 4.109375zm0 6.28125l3.390625 0q0.875 0 1.21875 -0.0625q0.625 -0.109375 1.046875 -0.359375q0.421875 -0.265625 0.6875 -0.765625q0.265625 -0.5 0.265625 -1.140625q0 -0.765625 -0.390625 -1.328125q-0.390625 -0.5625 -1.078125 -0.78125q-0.6875 -0.234375 -1.984375 -0.234375l-3.15625 0l0 4.671875zm10.4904785 1.609375l0 -9.859375l1.5 0l0 1.5q0.578125 -1.046875 1.0625 -1.375q0.484375 -0.34375 1.078125 -0.34375q0.84375 0 1.71875 0.546875l-0.578125 1.546875q-0.609375 -0.359375 -1.234375 -0.359375q-0.546875 0 -0.984375 0.328125q-0.421875 0.328125 -0.609375 0.90625q-0.28125 0.890625 -0.28125 1.953125l0 5.15625l-1.671875 0zm8.0563965 0l-3.015625 -9.859375l1.71875 0l1.5625 5.6875l0.59375 2.125q0.03125 -0.15625 0.5 -2.03125l1.578125 -5.78125l1.71875 0l1.46875 5.71875l0.484375 1.890625l0.578125 -1.90625l1.6875 -5.703125l1.625 0l-3.078125 9.859375l-1.734375 0l-1.578125 -5.90625l-0.375 -1.671875l-2.0 7.578125l-1.734375 0zm10.769836 0l0 -1.359375l6.265625 -7.1875q-1.0625 0.046875 -1.875 0.046875l-4.015625 0l0 -1.359375l8.046875 0l0 1.109375l-5.34375 6.25l-1.015625 1.140625q1.109375 -0.078125 2.09375 -0.078125l4.5625 0l0 1.4375l-8.71875 0zm10.1875 0l0 -9.859375l1.5 0l0 1.5q0.578125 -1.046875 1.0625 -1.375q0.484375 -0.34375 1.078125 -0.34375q0.84375 0 1.71875 0.546875l-0.578125 1.546875q-0.609375 -0.359375 -1.234375 -0.359375q-0.546875 0 -0.984375 0.328125q-0.421875 0.328125 -0.609375 0.90625q-0.28125 0.890625 -0.28125 1.953125l0 5.15625l-1.671875 0zm11.020996 -4.375l1.6875 -0.140625q0.125 1.015625 0.5625 1.671875q0.4375 0.65625 1.359375 1.0625q0.9375 0.40625 2.09375 0.40625q1.03125 0 1.8125 -0.3125q0.796875 -0.3125 1.1875 -0.84375q0.390625 -0.53125 0.390625 -1.15625q0 -0.640625 -0.375 -1.109375q-0.375 -0.484375 -1.234375 -0.8125q-0.546875 -0.21875 -2.421875 -0.65625q-1.875 -0.453125 -2.625 -0.859375q-0.96875 -0.515625 -1.453125 -1.265625q-0.46875 -0.75 -0.46875 -1.6875q0 -1.03125 0.578125 -1.921875q0.59375 -0.90625 1.703125 -1.359375q1.125 -0.46875 2.5 -0.46875q1.515625 0 2.671875 0.484375q1.15625 0.484375 1.765625 1.4375q0.625 0.9375 0.671875 2.140625l-1.71875 0.125q-0.140625 -1.28125 -0.953125 -1.9375q-0.796875 -0.671875 -2.359375 -0.671875q-1.625 0 -2.375 0.609375q-0.75 0.59375 -0.75 1.4375q0 0.734375 0.53125 1.203125q0.515625 0.46875 2.703125 0.96875q2.203125 0.5 3.015625 0.875q1.1875 0.546875 1.75 1.390625q0.578125 0.828125 0.578125 1.921875q0 1.09375 -0.625 2.0625q-0.625 0.953125 -1.796875 1.484375q-1.15625 0.53125 -2.609375 0.53125q-1.84375 0 -3.09375 -0.53125q-1.25 -0.546875 -1.96875 -1.625q-0.703125 -1.078125 -0.734375 -2.453125zm16.490417 2.875l0.234375 1.484375q-0.703125 0.140625 -1.265625 0.140625q-0.90625 0 -1.40625 -0.28125q-0.5 -0.296875 -0.703125 -0.75q-0.203125 -0.46875 -0.203125 -1.984375l0 -5.65625l-1.234375 0l0 -1.3125l1.234375 0l0 -2.4375l1.65625 -1.0l0 3.4375l1.6875 0l0 1.3125l-1.6875 0l0 5.75q0 0.71875 0.078125 0.921875q0.09375 0.203125 0.296875 0.328125q0.203125 0.125 0.578125 0.125q0.265625 0 0.734375 -0.078125zm7.9802246 1.5l0 -1.453125q-1.140625 1.671875 -3.125 1.671875q-0.859375 0 -1.625 -0.328125q-0.75 -0.34375 -1.125 -0.84375q-0.359375 -0.5 -0.515625 -1.234375q-0.09375 -0.5 -0.09375 -1.5625l0 -6.109375l1.671875 0l0 5.46875q0 1.3125 0.09375 1.765625q0.15625 0.65625 0.671875 1.03125q0.515625 0.375 1.265625 0.375q0.75 0 1.40625 -0.375q0.65625 -0.390625 0.921875 -1.046875q0.28125 -0.671875 0.28125 -1.9375l0 -5.28125l1.671875 0l0 9.859375l-1.5 0zm4.3287964 0l0 -8.546875l-1.484375 0l0 -1.3125l1.484375 0l0 -1.046875q0 -0.984375 0.171875 -1.46875q0.234375 -0.65625 0.84375 -1.046875q0.609375 -0.40625 1.703125 -0.40625q0.703125 0 1.5625 0.15625l-0.25 1.46875q-0.515625 -0.09375 -0.984375 -0.09375q-0.765625 0 -1.078125 0.328125q-0.3125 0.3125 -0.3125 1.203125l0 0.90625l1.921875 0l0 1.3125l-1.921875 0l0 8.546875l-1.65625 0zm5.1833496 0l0 -8.546875l-1.484375 0l0 -1.3125l1.484375 0l0 -1.046875q0 -0.984375 0.171875 -1.46875q0.234375 -0.65625 0.84375 -1.046875q0.609375 -0.40625 1.703125 -0.40625q0.703125 0 1.5625 0.15625l-0.25 1.46875q-0.515625 -0.09375 -0.984375 -0.09375q-0.765625 0 -1.078125 0.328125q-0.3125 0.3125 -0.3125 1.203125l0 0.90625l1.921875 0l0 1.3125l-1.921875 0l0 8.546875l-1.65625 0z" fill-rule="nonzero"></path><path stroke="#999999" stroke-width="2.0" stroke-linejoin="round" stroke-linecap="butt" d="m3.4689844 210.33678l169.88977 -108.661415" fill-rule="nonzero"></path><path stroke="#999999" stroke-width="2.0" stroke-linejoin="round" stroke-linecap="butt" d="m305.10678 100.54675l377.92123 107.46457" fill-rule="nonzero"></path><path fill="#ffe599" d="m0 206.83604l171.62204 0l0 35.811035l-171.62204 0z" fill-rule="nonzero"></path><path stroke="#d9d9d9" stroke-width="2.0" stroke-linejoin="round" stroke-linecap="butt" d="m0 206.83604l171.62204 0l0 35.811035l-171.62204 0z" fill-rule="nonzero"></path><path fill="#000000" d="m75.472046 227.04625l1.625 -0.21875q0.0625 1.546875 0.578125 2.125q0.53125 0.578125 1.4375 0.578125q0.6875 0 1.171875 -0.3125q0.5 -0.3125 0.671875 -0.84375q0.1875 -0.53125 0.1875 -1.703125l0 -9.359375l1.8125 0l0 9.265625q0 1.703125 -0.421875 2.640625q-0.40625 0.9375 -1.3125 1.4375q-0.890625 0.484375 -2.09375 0.484375q-1.796875 0 -2.75 -1.03125q-0.9375 -1.03125 -0.90625 -3.0625zm9.640625 -0.515625l1.6875 -0.140625q0.125 1.015625 0.5625 1.671875q0.4375 0.65625 1.359375 1.0625q0.9375 0.40625 2.09375 0.40625q1.03125 0 1.8125 -0.3125q0.796875 -0.3125 1.1875 -0.84375q0.390625 -0.53125 0.390625 -1.15625q0 -0.640625 -0.375 -1.109375q-0.375 -0.484375 -1.234375 -0.8125q-0.546875 -0.21875 -2.421875 -0.65625q-1.875 -0.453125 -2.625 -0.859375q-0.96875 -0.515625 -1.453125 -1.265625q-0.46875 -0.75 -0.46875 -1.6875q0 -1.03125 0.578125 -1.921875q0.59375 -0.90625 1.703125 -1.359375q1.125 -0.46875 2.5 -0.46875q1.515625 0 2.671875 0.484375q1.15625 0.484375 1.765625 1.4375q0.625 0.9375 0.671875 2.140625l-1.71875 0.125q-0.140625 -1.28125 -0.953125 -1.9375q-0.796875 -0.671875 -2.359375 -0.671875q-1.625 0 -2.375 0.609375q-0.75 0.59375 -0.75 1.4375q0 0.734375 0.53125 1.203125q0.515625 0.46875 2.703125 0.96875q2.203125 0.5 3.015625 0.875q1.1875 0.546875 1.75 1.390625q0.578125 0.828125 0.578125 1.921875q0 1.09375 -0.625 2.0625q-0.625 0.953125 -1.796875 1.484375q-1.15625 0.53125 -2.609375 0.53125q-1.84375 0 -3.09375 -0.53125q-1.25 -0.546875 -1.96875 -1.625q-0.703125 -1.078125 -0.734375 -2.453125z" fill-rule="nonzero"></path><path stroke="#999999" stroke-width="2.0" stroke-linejoin="round" stroke-linecap="butt" d="m685.3091 239.99055l0 0c0.113098145 19.151657 -2.3827515 34.69258 -5.574524 34.711594l-329.35483 1.962616c-3.191803 0.019042969 -5.687622 15.559937 -5.5745544 34.71161l0 0c-0.11306763 -19.151672 -2.7922058 -34.661743 -5.9840393 -34.64273l-329.3548 1.962616c-3.1918159 0.019042969 -5.8709526 -15.491028 -5.9840183 -34.642715" fill-rule="nonzero"></path><path fill="#000000" d="m325.1207 343.13864l-2.609375 0l0 -9.828125q-1.4375 1.34375 -3.375 1.984375l0 -2.375q1.03125 -0.328125 2.21875 -1.25q1.203125 -0.9375 1.640625 -2.1875l2.125 0l0 13.65625zm12.531982 -10.265625l-2.53125 0.28125q-0.09375 -0.78125 -0.484375 -1.15625q-0.375 -0.375 -1.0 -0.375q-0.828125 0 -1.40625 0.75q-0.5625 0.734375 -0.71875 3.078125q0.984375 -1.140625 2.421875 -1.140625q1.640625 0 2.796875 1.25q1.171875 1.234375 1.171875 3.203125q0 2.078125 -1.234375 3.34375q-1.21875 1.265625 -3.140625 1.265625q-2.0625 0 -3.390625 -1.59375q-1.3125 -1.609375 -1.3125 -5.25q0 -3.75 1.375 -5.390625q1.390625 -1.65625 3.59375 -1.65625q1.546875 0 2.5625 0.875q1.015625 0.859375 1.296875 2.515625zm-5.90625 5.6875q0 1.265625 0.578125 1.953125q0.59375 0.6875 1.34375 0.6875q0.71875 0 1.203125 -0.5625q0.484375 -0.5625 0.484375 -1.84375q0 -1.328125 -0.53125 -1.9375q-0.515625 -0.625 -1.296875 -0.625q-0.75 0 -1.265625 0.59375q-0.515625 0.578125 -0.515625 1.734375zm7.813202 -5.28125l2.40625 0l0 1.359375q1.28125 -1.578125 3.0625 -1.578125q0.953125 0 1.640625 0.390625q0.703125 0.390625 1.140625 1.1875q0.65625 -0.796875 1.40625 -1.1875q0.75 -0.390625 1.609375 -0.390625q1.078125 0 1.828125 0.453125q0.75 0.4375 1.125 1.28125q0.265625 0.640625 0.265625 2.046875l0 6.296875l-2.609375 0l0 -5.625q0 -1.46875 -0.265625 -1.90625q-0.359375 -0.546875 -1.109375 -0.546875q-0.546875 0 -1.03125 0.34375q-0.484375 0.328125 -0.703125 0.96875q-0.203125 0.640625 -0.203125 2.03125l0 4.734375l-2.609375 0l0 -5.40625q0 -1.4375 -0.140625 -1.84375q-0.140625 -0.421875 -0.4375 -0.625q-0.28125 -0.203125 -0.78125 -0.203125q-0.609375 0 -1.09375 0.328125q-0.484375 0.3125 -0.6875 0.9375q-0.203125 0.609375 -0.203125 2.03125l0 4.78125l-2.609375 0l0 -9.859375zm15.869659 7.046875l2.609375 -0.390625q0.171875 0.75 0.671875 1.15625q0.515625 0.390625 1.4375 0.390625q1.0 0 1.515625 -0.375q0.34375 -0.265625 0.34375 -0.703125q0 -0.296875 -0.1875 -0.484375q-0.1875 -0.1875 -0.875 -0.34375q-3.140625 -0.703125 -4.0 -1.265625q-1.15625 -0.796875 -1.15625 -2.21875q0 -1.28125 1.0 -2.15625q1.015625 -0.875 3.140625 -0.875q2.03125 0 3.0 0.65625q0.984375 0.65625 1.359375 1.953125l-2.453125 0.453125q-0.15625 -0.578125 -0.609375 -0.875q-0.4375 -0.3125 -1.25 -0.3125q-1.03125 0 -1.46875 0.296875q-0.296875 0.203125 -0.296875 0.515625q0 0.28125 0.25 0.484375q0.359375 0.25 2.4375 0.734375q2.078125 0.46875 2.90625 1.15625q0.828125 0.6875 0.828125 1.9375q0 1.359375 -1.140625 2.328125q-1.125 0.96875 -3.34375 0.96875q-2.015625 0 -3.1875 -0.8125q-1.171875 -0.8125 -1.53125 -2.21875zm12.313202 -0.6875l-0.6875 -6.90625l0 -3.1875l2.828125 0l0 3.1875l-0.671875 6.90625l-1.46875 0zm-0.578125 3.5l0 -2.609375l2.609375 0l0 2.609375l-2.609375 0z" fill-rule="nonzero"></path></g></svg>

