<svg version="1.1" xmlns="http://www.w3.org/2000/svg" xmlns:xlink="http://www.w3.org/1999/xlink" x="0px" y="0px" width="285.19px" height="74px">
<g>
  <g>
    <polygon fill-rule="evenodd" clip-rule="evenodd" fill="#888888" points="35.53,74 35.53,72 31.38,72 31.38,64 29.27,64 29.27,74
          "/>
    <polygon fill-rule="evenodd" clip-rule="evenodd" fill="#888888" points="43.17,72 39.38,72 39.38,70 42.92,70 42.92,68 39.38,68
      39.38,66 43.17,66 43.17,64 37.27,64 37.27,74 43.17,74     "/>
    <polygon fill-rule="evenodd" clip-rule="evenodd" fill="#888888" points="49.06,66 51.78,66 51.78,64 44.23,64 44.23,66 46.95,66
      46.95,74 49.06,74     "/>
    <path fill-rule="evenodd" clip-rule="evenodd" fill="#888888" d="M52.86,64c-0.16,0.83-0.38,1.83-0.69,3h1.5
      c0.56-1.12,0.97-2.08,1.21-2.88L54.78,64H52.86z"/>
    <path fill-rule="evenodd" clip-rule="evenodd" fill="#888888" d="M61.88,69.5c-0.38-0.41-1.05-0.8-2.04-1.2
      c-0.75-0.28-1.23-0.49-1.42-0.61c-0.2-0.11-0.34-0.24-0.44-0.36c-0.09-0.13-0.14-0.27-0.14-0.44c0-0.25,0.11-0.47,0.35-0.64
      c0.22-0.16,0.54-0.25,0.98-0.25c0.36,0,0.72,0.05,1.1,0.14c0.37,0.09,0.84,0.24,1.42,0.45l0.69-1.79
      c-0.54-0.25-1.05-0.44-1.54-0.58C60.34,64.08,59.83,64,59.3,64c-1.11,0-1.97,0.27-2.6,0.8c-0.62,0.53-0.92,1.25-0.92,2.15
      c0,0.43,0.1,0.78,0.28,1.1c0.19,0.31,0.46,0.59,0.78,0.83c0.32,0.23,0.8,0.48,1.46,0.73c0.68,0.28,1.14,0.47,1.36,0.59
      c0.22,0.13,0.39,0.27,0.51,0.39c0.11,0.14,0.17,0.3,0.17,0.47c0,0.32-0.14,0.55-0.39,0.71C59.69,71.92,59.31,72,58.81,72
      c-0.4,0-0.86-0.06-1.36-0.19c-0.5-0.12-1.09-0.33-1.79-0.64v2.14C56.5,73.78,57.48,74,58.59,74c1.21,0,2.14-0.27,2.82-0.81
      c0.67-0.53,1.01-1.28,1.01-2.24C62.42,70.39,62.23,69.91,61.88,69.5z"/>
    <path fill-rule="evenodd" clip-rule="evenodd" fill="#888888" d="M74.33,74l2.48-7.83h0.05c-0.06,1.27-0.09,2.05-0.09,2.33v0.77
      V74h1.96V64h-2.84l-2.44,7.64h-0.04L71.12,64h-2.85v10h1.89v-4.66c0-0.53-0.05-1.59-0.14-3.18h0.06l2.3,7.84H74.33z"/>
    <path fill-rule="evenodd" clip-rule="evenodd" fill="#888888" d="M83.62,70c0.76-2.36,1.22-3.84,1.38-4.45
      c0.03,0.17,0.09,0.4,0.19,0.68L86.41,70H83.62z M90,74l-3.7-10h-2.6L80,74h2.28l0.77-2h3.89l0.78,2H90z"/>
    <polygon fill-rule="evenodd" clip-rule="evenodd" fill="#888888" points="95.73,68.44 98.97,64 96.62,64 94.14,67.41 93.38,68.58
      93.38,64 91.27,64 91.27,74 93.38,74 93.38,70.44 94.22,69.8 96.59,74 99,74     "/>
    <polygon fill-rule="evenodd" clip-rule="evenodd" fill="#888888" points="106.17,72 102.38,72 102.38,70 105.92,70 105.92,68
      102.38,68 102.38,66 106.17,66 106.17,64 100.27,64 100.27,74 106.17,74     "/>
    <polygon fill-rule="evenodd" clip-rule="evenodd" fill="#888888" points="116.06,66 118.78,66 118.78,64 111.23,64 111.23,66
      113.95,66 113.95,74 116.06,74     "/>
    <polygon fill-rule="evenodd" clip-rule="evenodd" fill="#888888" points="128.73,64 126.61,64 126.61,68 122.38,68 122.38,64
      120.27,64 120.27,74 122.38,74 122.38,70 126.61,70 126.61,74 128.73,74     "/>
    <polygon fill-rule="evenodd" clip-rule="evenodd" fill="#888888" points="137.17,72 133.38,72 133.38,70 136.92,70 136.92,68
      133.38,68 133.38,66 137.17,66 137.17,64 131.27,64 131.27,74 137.17,74     "/>
    <path fill-rule="evenodd" clip-rule="evenodd" fill="#888888" d="M156,64h-2.08l-1.34,5.45c-0.1,0.35-0.19,0.77-0.28,1.3
      c-0.11,0.53-0.19,0.98-0.24,1.33l-0.23-1.31c-0.11-0.52-0.21-0.91-0.27-1.16L150,64h-2l-1.56,5.61c-0.1,0.3-0.21,0.72-0.3,1.27
      c-0.11,0.54-0.17,0.95-0.2,1.2c-0.11-0.74-0.28-1.61-0.52-2.63L144.08,64H142l2.64,10h2.41l1.45-5.23
      c0.06-0.24,0.14-0.63,0.27-1.18c0.12-0.53,0.2-0.93,0.23-1.18c0.02,0.2,0.09,0.59,0.22,1.18c0.12,0.6,0.22,0.97,0.28,1.16
      l1.45,5.25h2.43L156,64z"/>
    <polygon fill-rule="evenodd" clip-rule="evenodd" fill="#888888" points="163.17,72 159.38,72 159.38,70 162.92,70 162.92,68
      159.38,68 159.38,66 163.17,66 163.17,64 157.27,64 157.27,74 163.17,74     "/>
    <path fill-rule="evenodd" clip-rule="evenodd" fill="#888888" d="M168.52,70c1.03,0,1.54,0.33,1.54,0.95
      c0,0.36-0.12,0.63-0.36,0.8c-0.25,0.17-0.62,0.25-1.12,0.25h-1.2v-2H168.52z M167.38,66h0.95c0.53,0,0.9,0.08,1.15,0.23
      c0.24,0.16,0.36,0.39,0.36,0.74c0,0.37-0.12,0.64-0.34,0.8c-0.22,0.15-0.58,0.23-1.06,0.23h-1.06V66z M165.27,74h3.53
      c1.06,0,1.9-0.23,2.53-0.73c0.62-0.49,0.94-1.18,0.94-2.07c0-0.61-0.15-1.11-0.43-1.48c-0.28-0.38-0.73-0.63-1.36-0.77v-0.07
      c0.47-0.07,0.85-0.3,1.13-0.71c0.28-0.4,0.42-0.9,0.42-1.53c0-0.91-0.31-1.58-0.91-2S169.55,64,168.2,64h-2.93V74z"/>
    <path fill-rule="evenodd" clip-rule="evenodd" fill="#888888" d="M183.88,69.5c-0.38-0.41-1.05-0.8-2.04-1.2
      c-0.75-0.28-1.23-0.49-1.42-0.61c-0.2-0.11-0.34-0.24-0.44-0.36c-0.09-0.13-0.14-0.27-0.14-0.44c0-0.25,0.11-0.47,0.35-0.64
      c0.22-0.16,0.54-0.25,0.98-0.25c0.36,0,0.72,0.05,1.1,0.14c0.37,0.09,0.84,0.24,1.42,0.45l0.69-1.79
      c-0.54-0.25-1.05-0.44-1.54-0.58c-0.5-0.14-1.01-0.22-1.54-0.22c-1.11,0-1.97,0.27-2.6,0.8c-0.62,0.53-0.92,1.25-0.92,2.15
      c0,0.43,0.1,0.78,0.28,1.1c0.19,0.31,0.46,0.59,0.78,0.83c0.32,0.23,0.8,0.48,1.46,0.73c0.68,0.28,1.14,0.47,1.36,0.59
      c0.22,0.13,0.39,0.27,0.51,0.39c0.11,0.14,0.17,0.3,0.17,0.47c0,0.32-0.14,0.55-0.39,0.71c-0.26,0.15-0.64,0.23-1.14,0.23
      c-0.4,0-0.86-0.06-1.36-0.19c-0.5-0.12-1.09-0.33-1.79-0.64v2.14c0.84,0.47,1.82,0.69,2.93,0.69c1.21,0,2.14-0.27,2.82-0.81
      c0.67-0.53,1.01-1.28,1.01-2.24C184.42,70.39,184.23,69.91,183.88,69.5z"/>
    <rect x="186.36" y="64" fill-rule="evenodd" clip-rule="evenodd" fill="#888888" width="2.11" height="10"/>
    <polygon fill-rule="evenodd" clip-rule="evenodd" fill="#888888" points="197.53,74 197.53,72 193.38,72 193.38,64 191.27,64
      191.27,74     "/>
    <polygon fill-rule="evenodd" clip-rule="evenodd" fill="#888888" points="203.73,68.44 206.97,64 204.62,64 202.14,67.41
      201.38,68.58 201.38,64 199.27,64 199.27,74 201.38,74 201.38,70.44 202.22,69.8 204.59,74 207,74    "/>
    <polygon fill-rule="evenodd" clip-rule="evenodd" fill="#888888" points="209.41,64 207.11,64 210.42,70.17 210.42,74 212.53,74
      212.53,70.11 215.84,64 213.56,64 211.48,68.12     "/>
    <path fill-rule="evenodd" clip-rule="evenodd" fill="#888888" d="M226.88,69.5c-0.38-0.41-1.05-0.8-2.04-1.2
      c-0.75-0.28-1.23-0.49-1.42-0.61c-0.2-0.11-0.34-0.24-0.44-0.36c-0.09-0.13-0.14-0.27-0.14-0.44c0-0.25,0.11-0.47,0.35-0.64
      c0.22-0.16,0.54-0.25,0.98-0.25c0.36,0,0.72,0.05,1.1,0.14c0.37,0.09,0.84,0.24,1.42,0.45l0.69-1.79
      c-0.54-0.25-1.05-0.44-1.54-0.58c-0.5-0.14-1.01-0.22-1.54-0.22c-1.11,0-1.97,0.27-2.6,0.8c-0.62,0.53-0.92,1.25-0.92,2.15
      c0,0.43,0.1,0.78,0.28,1.1c0.19,0.31,0.46,0.59,0.78,0.83c0.32,0.23,0.8,0.48,1.46,0.73c0.68,0.28,1.14,0.47,1.36,0.59
      c0.22,0.13,0.39,0.27,0.51,0.39c0.11,0.14,0.17,0.3,0.17,0.47c0,0.32-0.14,0.55-0.39,0.71c-0.26,0.15-0.64,0.23-1.14,0.23
      c-0.4,0-0.86-0.06-1.36-0.19c-0.5-0.12-1.09-0.33-1.79-0.64v2.14c0.84,0.47,1.82,0.69,2.93,0.69c1.21,0,2.14-0.27,2.82-0.81
      c0.67-0.53,1.01-1.28,1.01-2.24C227.42,70.39,227.23,69.91,226.88,69.5z"/>
    <path fill-rule="evenodd" clip-rule="evenodd" fill="#888888" d="M235.33,74l2.48-7.83h0.05c-0.06,1.27-0.09,2.05-0.09,2.33v0.77
      V74h1.96V64h-2.84l-2.44,7.64h-0.04L232.12,64h-2.85v10h1.89v-4.66c0-0.53-0.05-1.59-0.14-3.18h0.06l2.3,7.84H235.33z"/>
    <path fill-rule="evenodd" clip-rule="evenodd" fill="#888888" d="M244.66,66.77c0.4-0.5,1.03-0.77,1.86-0.77c1.62,0,2.45,1,2.45,3
      s-0.83,3-2.47,3c-0.83,0-1.45-0.25-1.86-0.75c-0.41-0.5-0.61-1.25-0.61-2.25C244.03,68.02,244.23,67.27,244.66,66.77z
       M249.98,65.3c-0.81-0.86-1.96-1.3-3.46-1.3c-1.52,0-2.68,0.44-3.49,1.28c-0.81,0.86-1.22,2.1-1.22,3.7
      c0,1.63,0.39,2.86,1.21,3.72c0.81,0.88,1.96,1.3,3.48,1.3c1.5,0,2.66-0.42,3.47-1.3c0.81-0.86,1.22-2.09,1.22-3.7
      S250.78,66.16,249.98,65.3z"/>
    <path fill-rule="evenodd" clip-rule="evenodd" fill="#888888" d="M255.66,66.77c0.4-0.5,1.03-0.77,1.86-0.77c1.62,0,2.45,1,2.45,3
      s-0.83,3-2.47,3c-0.83,0-1.45-0.25-1.86-0.75c-0.41-0.5-0.61-1.25-0.61-2.25C255.03,68.02,255.23,67.27,255.66,66.77z
       M260.98,65.3c-0.81-0.86-1.96-1.3-3.46-1.3c-1.52,0-2.68,0.44-3.49,1.28c-0.81,0.86-1.22,2.1-1.22,3.7
      c0,1.63,0.39,2.86,1.21,3.72c0.81,0.88,1.96,1.3,3.48,1.3c1.5,0,2.66-0.42,3.47-1.3c0.81-0.86,1.22-2.09,1.22-3.7
      S261.78,66.16,260.98,65.3z"/>
    <polygon fill-rule="evenodd" clip-rule="evenodd" fill="#888888" points="268.06,66 270.78,66 270.78,64 263.23,64 263.23,66
      265.95,66 265.95,74 268.06,74     "/>
    <polygon fill-rule="evenodd" clip-rule="evenodd" fill="#888888" points="280.73,64 278.61,64 278.61,68 274.38,68 274.38,64
      272.27,64 272.27,74 274.38,74 274.38,70 278.61,70 278.61,74 280.73,74     "/>
    <path fill-rule="evenodd" clip-rule="evenodd" fill="#888888" d="M283.11,73.73c0.2,0.19,0.5,0.27,0.89,0.27
      c0.38,0,0.66-0.08,0.88-0.27c0.2-0.17,0.31-0.42,0.31-0.73s-0.11-0.56-0.31-0.73c-0.22-0.18-0.5-0.27-0.88-0.27
      c-0.41,0-0.7,0.09-0.91,0.25c-0.2,0.17-0.29,0.42-0.29,0.75C282.8,73.31,282.89,73.56,283.11,73.73z M285.19,64h-2.36l0.34,6.83
      h1.67L285.19,64z"/>
  </g>
  <g>
    <path fill-rule="evenodd" clip-rule="evenodd" fill="#251F21" d="M17.13,64.6C19.7,61.65,21,57.37,21,51.77v-5.56
      c-3.46,0.69-6.65,1.39-10,2.1v3.1c0,2.94-0.49,5.09-1.46,6.47c-0.97,1.38-2.48,2.07-4.72,2.07c-1.44,0-3.06-0.23-4.82-0.67v8.96
      C1.72,68.73,3.73,69,6.03,69C11.07,69,14.56,67.52,17.13,64.6z M66,37.72V55h10V37.71c0-0.57-0.64-0.69-0.62-1.22L66,37.72z
       M90,33.86V55h10V32.18L90,33.86z M117,35.12V29.7c-3.24,0.58-6.66,1.16-10,1.73V55h10V43.3l4.28-3.5L131.96,55h11.61
      l-15.36-21.17l7.16-7.56c-4.41,0.88-8.99,1.75-13.69,2.6l-0.51,0.58l-4.05,5.67H117z M37.49,43.16c-3.51,0.64-7,1.29-10.45,1.95
      c0.05,3.63,1.06,6.43,3.01,8.41c2.01,2.01,4.77,3.04,8.29,3.04c2.85,0,5.15-0.46,6.93-1.35c1.76-0.9,3.48-2.52,5.17-4.87
      l0.27-0.43L52.66,55H60V38.88l-9.99,2.13l-0.32,0.42c0,2.19-0.69,3.94-2.06,5.25c-1.38,1.31-3.19,1.96-5.47,1.96
      c-3.21,0-4.79-1.38-4.79-4.17C37.37,44.01,37.41,43.57,37.49,43.16z"/>
    <path fill-rule="evenodd" clip-rule="evenodd" fill="#5CA48D" d="M27,42.43V3H17v41.52C20.35,43.81,23.54,43.11,27,42.43z
       M43.12,39.77c0.25-1.28,0.9-2.47,1.97-3.2c1.41-0.95,3.54-1.46,6.41-1.57H55v2.55l10-1.64v-8.25c0-4.35-1.32-7.6-3.94-9.74
      s-6.08-3.22-10.97-3.22c-5.14,0-9.82,1.19-14.02,3.54l3.29,7.07c3.94-1.79,7.04-2.69,9.96-2.69c3.78,0,5.68,1.77,5.68,5.27V29
      h-6.33c-5.46,0.21-9.22,1.24-11.93,3.11c-2.71,1.87-4.07,5.38-4.07,9.32v0.29C36.12,41.06,39.61,40.41,43.12,39.77z M106,28.14
      c0-4.35-1.09-7.67-3.27-9.97c-2.18-2.3-5.54-3.47-9.75-3.47c-2.46,0-4.64,0.44-6.58,1.32c-1.93,0.9-3.44,2.23-4.54,3.98h-0.54
      l-1.36-5H72v20.05l10.09-1.96c0.14-3.47,1.01-6.03,2.06-7.66c1.2-1.87,3.17-2.81,5.9-2.81c1.98,0,3.43,0.67,4.34,2
      c0.92,1.33,1.37,3.31,1.37,5.96l0.17,0.31L106,29.22V28.14z M123,26.31v-3.09V0h-10v28.04C116.34,27.46,119.76,26.89,123,26.31z
       M141,23.17l7.32-8.17h-11.35l-9.66,10.77C132.01,24.92,136.59,24.05,141,23.17z"/>
  </g>
  <g>
    <polygon fill-rule="evenodd" clip-rule="evenodd" fill="#5CA48D" points="168.53,33 190.98,33 190.98,30 168.53,30 168.53,9
      192.31,9 192.31,6 165.05,6 165.05,56 168.53,56    "/>
    <path fill-rule="evenodd" clip-rule="evenodd" fill="#5CA48D" d="M203.95,19.67c-1.72,1.11-3.33,3.03-4.83,5.77h-0.23L198.55,19
      h-2.88v37h3.39V35.33c0-4.13,1-7.55,3-10.27c2-2.7,4.58-4.06,7.71-4.06c1.64,0,3.23,0.2,4.76,0.59l0.64-3.14
      c-1.78-0.29-3.45-0.45-5-0.45C207.73,18,205.67,18.56,203.95,19.67z"/>
    <path fill-rule="evenodd" clip-rule="evenodd" fill="#5CA48D" d="M240.66,24.72c1.84,2.47,2.76,5.9,2.76,10.28h-22.64
      c0.36-4.53,1.61-7.98,3.74-10.39c2.12-2.41,4.96-3.61,8.5-3.61C236.27,21,238.81,22.25,240.66,24.72z M239.81,56.52
      c1.75-0.33,3.67-0.93,5.75-1.82v-3.06c-2.44,0.98-4.44,1.63-6.03,1.92c-1.59,0.3-3.42,0.44-5.51,0.44c-4.32,0-7.61-1.36-9.93-4.09
      c-2.31-2.74-3.48-6.71-3.51-11.91h26.44v-2.77c0-5.31-1.27-9.5-3.77-12.59c-2.5-3.09-5.92-4.64-10.23-4.64
      c-4.91,0-8.8,1.81-11.68,5.42c-2.89,3.61-4.32,8.41-4.32,14.39c0,6.07,1.48,10.78,4.48,14.14c2.98,3.38,7.16,5.05,12.5,5.05
      C236.11,57,238.05,56.83,239.81,56.52z"/>
    <path fill-rule="evenodd" clip-rule="evenodd" fill="#5CA48D" d="M275.16,24.72c1.84,2.47,2.76,5.9,2.76,10.28h-22.64
      c0.36-4.53,1.61-7.98,3.74-10.39c2.12-2.41,4.96-3.61,8.5-3.61C270.77,21,273.31,22.25,275.16,24.72z M274.31,56.52
      c1.75-0.33,3.67-0.93,5.75-1.82v-3.06c-2.44,0.98-4.44,1.63-6.03,1.92c-1.59,0.3-3.42,0.44-5.51,0.44c-4.32,0-7.61-1.36-9.93-4.09
      c-2.31-2.74-3.48-6.71-3.51-11.91h26.44v-2.77c0-5.31-1.27-9.5-3.77-12.59c-2.5-3.09-5.92-4.64-10.23-4.64
      c-4.91,0-8.8,1.81-11.68,5.42c-2.89,3.61-4.32,8.41-4.32,14.39c0,6.07,1.48,10.78,4.48,14.14c2.98,3.38,7.16,5.05,12.5,5.05
      C270.61,57,272.55,56.83,274.31,56.52z"/>
  </g>
</g>
</svg>
